<svg width="61" height="61" viewBox="0 0 61 61" fill="none" xmlns="http://www.w3.org/2000/svg">
<g clip-path="url(#clip0_140_26)">
<path d="M11.96 0.460205C5.38924 0.460205 0.0114746 5.74968 0.0114746 12.2128V48.6833C0.0114746 55.1463 5.38911 60.434 11.96 60.434H49.0383C55.6091 60.434 60.9848 55.1464 60.9848 48.6833V12.2128C60.9848 5.7498 55.6091 0.460205 49.0383 0.460205H11.96ZM14.9652 10.3571C18.1157 10.3571 20.0563 12.3914 20.1162 15.0656C20.1162 17.6807 18.1156 19.7722 14.9043 19.7722H14.8452C11.7546 19.7722 9.75702 17.6808 9.75702 15.0656C9.75702 12.3915 11.815 10.3571 14.9651 10.3571H14.9652ZM42.1151 22.8557C48.1742 22.8557 52.7163 26.751 52.7163 35.1218V50.7488H43.5081V36.1696C43.5081 32.506 42.1755 30.0065 38.8431 30.0065C36.2992 30.0065 34.7828 31.6912 34.1171 33.3186C33.8739 33.9008 33.8141 34.714 33.8141 35.5285V50.7488H24.6059C24.6059 50.7488 24.7268 26.052 24.6059 23.4948H33.816V27.3542C35.0396 25.4972 37.2284 22.8556 42.1151 22.8556V22.8557ZM10.3002 23.4968H19.5083V50.7489H10.3002V23.4968V23.4968Z" fill="#FFC700"/>
</g>
<defs>
<clipPath id="clip0_140_26">
<rect width="61" height="60" fill="white" transform="translate(0 0.445312)"/>
</clipPath>
</defs>
</svg>
