<svg width="61" height="61" viewBox="0 0 61 61" fill="none" xmlns="http://www.w3.org/2000/svg">
<g clip-path="url(#clip0_140_32)">
<path d="M11.1382 0.445312C4.96814 0.445312 0 5.33201 0 11.401V49.4897C0 55.5587 4.96814 60.4454 11.1382 60.4454H32.1261V36.9891H25.8202V28.5441H32.1261V21.3291C32.1261 15.6606 35.8519 10.456 44.4347 10.456C47.9098 10.456 50.4795 10.7841 50.4795 10.7841L50.2774 18.6704C50.2774 18.6704 47.6566 18.646 44.7969 18.646C41.7018 18.646 41.2055 20.0487 41.2055 22.3773V28.5442H50.5233L50.1172 36.9892H41.2055V60.4454H49.8618C56.0319 60.4454 61 55.5587 61 49.4898V11.401C61 5.33207 56.0319 0.445373 49.8618 0.445373H11.1382L11.1382 0.445312Z" fill="#FFC700"/>
</g>
<defs>
<clipPath id="clip0_140_32">
<rect width="61" height="60" fill="white" transform="translate(0 0.445312)"/>
</clipPath>
</defs>
</svg>
