<svg width="56" height="56" viewBox="0 0 56 56" fill="none" xmlns="http://www.w3.org/2000/svg">
<path d="M10.836 11.2H47.936C51.436 11.2 53.2 12.852 53.2 16.212V39.788C53.2 43.12 51.436 44.8 47.936 44.8H10.836C7.33602 44.8 5.57202 43.12 5.57202 39.788V16.212C5.57202 12.852 7.33602 11.2 10.836 11.2ZM29.372 35.28L48.244 19.796C48.916 19.236 49.448 17.948 48.608 16.8C47.796 15.652 46.312 15.624 45.332 16.324L29.372 27.1319L13.44 16.324C12.46 15.624 10.976 15.652 10.164 16.8C9.32402 17.948 9.85602 19.236 10.528 19.796L29.372 35.28Z" fill="#FFC700"/>
</svg>
