<svg width="54" height="54" viewBox="0 0 54 54" fill="none" xmlns="http://www.w3.org/2000/svg">
<path d="M39.15 49.5C29.9639 49.4881 21.1575 45.8337 14.6619 39.3381C8.16634 32.8426 4.51191 24.0361 4.5 14.85C4.5 12.105 5.59044 9.47246 7.53144 7.53146C9.47245 5.59046 12.105 4.50001 14.85 4.50001C15.4313 4.49559 16.0116 4.54834 16.5825 4.65751C17.1344 4.73919 17.6771 4.87484 18.2025 5.06251C18.5721 5.19218 18.9014 5.41606 19.1579 5.71203C19.4144 6.00799 19.5892 6.36578 19.665 6.75001L22.7475 20.25C22.8306 20.6165 22.8206 20.9979 22.7184 21.3595C22.6162 21.721 22.4251 22.0513 22.1625 22.32C21.87 22.635 21.8475 22.6575 19.08 24.0975C21.2962 28.9594 25.1847 32.8639 30.0375 35.1C31.5 32.31 31.5225 32.2875 31.8375 31.995C32.1062 31.7324 32.4365 31.5413 32.7981 31.4391C33.1596 31.3369 33.5411 31.3269 33.9075 31.41L47.4075 34.4925C47.7794 34.5788 48.1233 34.7583 48.4067 35.0142C48.6901 35.27 48.9037 35.5938 49.0275 35.955C49.2174 36.4891 49.3604 37.0386 49.455 37.5975C49.5455 38.163 49.5907 38.7348 49.59 39.3075C49.5485 42.0408 48.4274 44.6466 46.4714 46.5562C44.5155 48.4658 41.8835 49.5241 39.15 49.5V49.5Z" fill="#FFC700"/>
</svg>
