<svg width="63" height="61" viewBox="0 0 63 61" fill="none" xmlns="http://www.w3.org/2000/svg">
<path fill-rule="evenodd" clip-rule="evenodd" d="M31.7845 0C14.538 0 0.569092 13.9689 0.569092 31.2154C0.569092 45.0282 9.5045 56.695 21.9126 60.831C23.4734 61.1042 24.0587 60.1677 24.0587 59.3483C24.0587 58.6069 24.0197 56.1487 24.0197 53.5344C16.1768 54.9782 14.1478 51.6225 13.5235 49.8666C13.1723 48.9692 11.6506 46.1988 10.3239 45.4575C9.23137 44.8722 7.6706 43.4284 10.2849 43.3894C12.7431 43.3504 14.499 45.6525 15.0843 46.589C17.8936 51.3103 22.3809 49.9837 24.1758 49.1643C24.4489 47.1353 25.2683 45.7696 26.1657 44.9892C19.2203 44.2088 11.9627 41.5165 11.9627 29.5766C11.9627 26.1819 13.1723 23.3725 15.1623 21.1875C14.8501 20.4071 13.7576 17.2075 15.4745 12.9154C15.4745 12.9154 18.0887 12.096 24.0587 16.115C26.5559 15.4126 29.2092 15.0614 31.8625 15.0614C34.5159 15.0614 37.1692 15.4126 39.6664 16.115C45.6363 12.057 48.2506 12.9154 48.2506 12.9154C49.9675 17.2075 48.875 20.4071 48.5628 21.1875C50.5528 23.3725 51.7624 26.1429 51.7624 29.5766C51.7624 41.5555 44.4658 44.2088 37.5203 44.9892C38.6519 45.9647 39.6274 47.8376 39.6274 50.7641C39.6274 54.9391 39.5884 58.2948 39.5884 59.3483C39.5884 60.1677 40.1737 61.1432 41.7344 60.831C47.9311 58.7389 53.3158 54.7562 57.1306 49.4436C60.9453 44.1309 62.9981 37.7558 62.9999 31.2154C62.9999 13.9689 49.031 0 31.7845 0Z" fill="#FFC700"/>
</svg>
