<svg width="54" height="53" viewBox="0 0 54 53" fill="none" xmlns="http://www.w3.org/2000/svg">
<path d="M7.54102 36.3695C7.89258 36.4386 8.15625 36.4731 8.33203 36.4731C9.63281 36.4731 10.7578 36.0414 11.707 35.1779C13.8516 36.1105 15.8555 36.8703 17.7188 37.4575C20.7773 38.4246 23.9766 39.219 27.3164 39.8407C27.6328 40.6696 28.1074 41.3604 28.7402 41.913C27.8613 45.9886 26.6836 49.6843 25.207 53C20.7773 52.6891 16.708 51.4285 12.999 49.218C9.29004 47.0075 6.29297 44.1062 4.00781 40.5142C5.30859 39.1326 6.48633 37.7511 7.54102 36.3695ZM32.0098 43.1046C32.9238 43.1046 33.7852 42.8628 34.5938 42.3793C37.4414 44.4516 40.3066 46.2131 43.1895 47.6637C38.8301 50.9104 33.9434 52.6891 28.5293 53C29.9004 49.9951 31.0078 46.6966 31.8516 43.1046H32.0098ZM50.3086 39.8925C49.1133 41.8612 47.6016 43.7263 45.7734 45.4878C43.3828 44.2789 40.9043 42.7937 38.3379 41.0323C42.873 41.1359 46.8633 40.7559 50.3086 39.8925ZM37.0723 37.8201C37.002 36.7494 36.624 35.8082 35.9385 34.9966C35.2529 34.1849 34.4004 33.6409 33.3809 33.3646C33.5918 30.9469 33.6973 28.65 33.6973 26.4741C33.6973 24.9544 33.6445 23.2102 33.5391 21.2414C34.3125 20.9997 34.998 20.5852 35.5957 19.998C37.4941 20.7234 39.3223 21.5523 41.0801 22.4848C40.6934 23.2447 40.5 24.0218 40.5 24.8162C40.5 26.1978 40.9922 27.3721 41.9766 28.3392C42.9609 29.3063 44.1563 29.7898 45.5625 29.7898C47.1094 29.7898 48.3926 29.2027 49.4121 28.0283C50.8887 29.3408 52.207 30.7051 53.3672 32.1212C53.0508 33.6064 52.5762 35.0743 51.9434 36.5249C47.6543 37.6993 42.6973 38.131 37.0723 37.8201ZM50.5723 24.4018C50.4668 23.1238 49.9307 22.0445 48.9639 21.1637C47.9971 20.283 46.8633 19.8426 45.5625 19.8426C45.1758 19.8426 44.7539 19.9117 44.2969 20.0499C42.0469 18.7719 39.6387 17.6667 37.0723 16.7341V16.5269C37.0723 15.1799 36.6064 14.0314 35.6748 13.0816C34.7432 12.1318 33.5918 11.6224 32.2207 11.5533C31.3418 7.33953 30.1113 3.48843 28.5293 1.0021e-06C32.0449 0.207235 35.3672 1.0448 38.4961 2.51271C41.625 3.98061 44.3232 5.88889 46.5908 8.23754C48.8584 10.5862 50.6602 13.3493 51.9961 16.5269C53.332 19.7045 54 23.0202 54 26.4741C54 26.5086 53.9824 26.9749 53.9473 27.8729C52.9629 26.6641 51.8379 25.507 50.5723 24.4018ZM27.5801 14.1955C25.0488 13.7465 22.5 13.4529 19.9336 13.3148C19.6875 12.624 19.3008 11.985 18.7734 11.3979C19.582 7.77126 20.0742 4.24829 20.25 0.828935C22.043 0.379929 23.6953 0.103618 25.207 1.0021e-06C26.8594 3.69567 28.1426 7.87488 29.0566 12.5376C28.4238 12.9521 27.9316 13.5047 27.5801 14.1955ZM11.2324 11.7087C10.7754 12.2613 10.459 12.8485 10.2832 13.4702C7.7168 13.6774 5.23828 14.0055 2.84766 14.4545C4.53516 11.2079 6.85547 8.39296 9.80859 6.00978C10.125 7.8058 10.5996 9.70544 11.2324 11.7087ZM19.8281 16.6305C22.2891 16.7687 24.7148 17.0795 27.1055 17.5631C27.4922 19.29 28.4941 20.4816 30.1113 21.1378C30.252 23.1756 30.3223 24.9544 30.3223 26.4741C30.3223 28.7537 30.2168 31.1196 30.0059 33.5718C29.9355 33.5718 29.8477 33.6064 29.7422 33.6755C29.6367 33.7445 29.5664 33.7791 29.5312 33.7791C28.1602 32.4666 26.9648 31.2577 25.9453 30.1525C22.8867 26.8368 20.2852 23.072 18.1406 18.8583C18.9141 18.2711 19.4766 17.5285 19.8281 16.6305ZM15.1348 9.89541C15.0645 9.89541 14.8711 9.91268 14.5547 9.94721C13.957 7.84034 13.5176 5.75073 13.2363 3.6784C14.2559 3.09124 15.4863 2.50407 16.9277 1.91691C16.6816 4.61095 16.2598 7.28772 15.6621 9.94721C15.3809 9.91268 15.2051 9.89541 15.1348 9.89541ZM15.3984 22.2776C15.4336 22.2085 15.4775 22.1049 15.5303 21.9668C15.583 21.8286 15.627 21.725 15.6621 21.6559C17.877 25.5934 20.4785 29.1681 23.4668 32.3803C24.5566 33.5891 25.8574 34.9016 27.3691 36.3177C27.334 36.3177 27.3076 36.3436 27.29 36.3954L27.2637 36.4731C24.3105 35.886 21.4805 35.1606 18.7734 34.2972C17.1211 33.7791 15.3105 33.0883 13.3418 32.2248C13.4121 31.8794 13.4473 31.6204 13.4473 31.4477C13.4473 30.4115 13.1309 29.4617 12.498 28.5982C13.6582 26.4223 14.625 24.3154 15.3984 22.2776ZM12.9199 19.2727C12.498 20.4816 12.2871 21.1033 12.2871 21.1378C11.584 22.8648 10.7051 24.7126 9.65039 26.6813C9.19336 26.5432 8.75391 26.4741 8.33203 26.4741C7.13672 26.4741 6.06445 26.8713 5.11523 27.6657C3.39258 26.4914 1.70508 25.1789 0.0527344 23.7283C0.263672 21.7595 0.685547 19.8599 1.31836 18.0293C4.20117 17.4422 7.24219 17.0277 10.4414 16.7859C10.8984 17.8912 11.7246 18.7201 12.9199 19.2727ZM3.26953 31.4995C3.26953 32.6393 3.65625 33.6755 4.42969 34.608C3.69141 35.5406 2.95312 36.3868 2.21484 37.1466C0.949219 34.3144 0.210938 31.3959 0 28.391C1.16016 29.2545 2.28516 30.0316 3.375 30.7224C3.30469 31.0332 3.26953 31.2923 3.26953 31.4995Z" fill="#FFC700"/>
</svg>
