<svg width="291" height="291" viewBox="0 0 291 291" fill="none" xmlns="http://www.w3.org/2000/svg">
<g filter="url(#filter0_b_105_106)">
<rect width="291" height="291" rx="31" fill="url(#paint0_linear_105_106)" fill-opacity="0.7"/>
<rect x="1.75" y="1.75" width="287.5" height="287.5" rx="29.25" stroke="url(#paint1_radial_105_106)" stroke-width="3.5"/>
<rect x="1.75" y="1.75" width="287.5" height="287.5" rx="29.25" stroke="url(#paint2_radial_105_106)" stroke-opacity="0.2" stroke-width="3.5"/>
<rect x="1.75" y="1.75" width="287.5" height="287.5" rx="29.25" stroke="url(#paint3_radial_105_106)" stroke-opacity="0.2" stroke-width="3.5"/>
</g>
<path d="M90.1611 194H92.5611L86.2861 176.675H83.6611L77.3611 194H79.7611L81.1611 190.125H88.7611L90.1611 194ZM88.1111 188.275H81.8111L84.9611 179.475L88.1111 188.275ZM94.8318 187.1C94.8318 191.35 97.6568 194.225 101.332 194.225C103.832 194.225 105.607 192.95 106.432 191.425V194H108.732V175.5H106.432V182.75C105.482 181.175 103.507 180.075 101.357 180.075C97.6568 180.075 94.8318 182.825 94.8318 187.1ZM106.432 187.125C106.432 190.35 104.282 192.225 101.782 192.225C99.2818 192.225 97.1568 190.325 97.1568 187.1C97.1568 183.875 99.2818 182.05 101.782 182.05C104.282 182.05 106.432 183.95 106.432 187.125ZM125.951 187.125C125.951 182.8 122.926 180.075 119.026 180.075C115.151 180.075 112.101 182.8 112.101 187.125C112.101 191.475 115.051 194.225 118.926 194.225C122.826 194.225 125.951 191.475 125.951 187.125ZM114.426 187.125C114.426 183.675 116.601 182.05 119.001 182.05C121.351 182.05 123.626 183.675 123.626 187.125C123.626 190.6 121.301 192.225 118.926 192.225C116.551 192.225 114.426 190.6 114.426 187.125ZM131.593 182.85V175.5H129.318V194H131.593V191.475C132.443 192.975 134.218 194.225 136.718 194.225C140.393 194.225 143.218 191.35 143.218 187.1C143.218 182.825 140.418 180.075 136.718 180.075C134.293 180.075 132.468 181.325 131.593 182.85ZM140.893 187.1C140.893 190.325 138.768 192.225 136.243 192.225C133.768 192.225 131.593 190.35 131.593 187.125C131.593 183.95 133.768 182.05 136.243 182.05C138.768 182.05 140.893 183.875 140.893 187.1ZM152.412 182C154.762 182 156.762 183.475 156.737 186.15H148.087C148.337 183.475 150.187 182 152.412 182ZM158.812 189.775H156.362C155.862 191.25 154.562 192.3 152.512 192.3C150.187 192.3 148.237 190.775 148.062 188H159.012C159.062 187.525 159.087 187.125 159.087 186.625C159.087 182.875 156.487 180.075 152.512 180.075C148.512 180.075 145.737 182.8 145.737 187.125C145.737 191.475 148.612 194.225 152.512 194.225C155.912 194.225 158.112 192.275 158.812 189.775ZM181.205 194H183.605L177.33 176.675H174.705L168.405 194H170.805L172.205 190.125H179.805L181.205 194ZM179.155 188.275H172.855L176.005 179.475L179.155 188.275ZM187.151 194H189.426V182.175H192.301V180.3H189.426V179.325C189.426 177.55 190.101 176.8 192.151 176.8V174.9C188.651 174.9 187.151 176.275 187.151 179.325V180.3H185.376V182.175H187.151V194ZM195.828 190.25C195.828 193 197.203 194 199.628 194H201.678V192.075H200.003C198.603 192.075 198.103 191.6 198.103 190.25V182.175H201.678V180.3H198.103V176.85H195.828V180.3H194.053V182.175H195.828V190.25ZM210.635 182C212.985 182 214.985 183.475 214.96 186.15H206.31C206.56 183.475 208.41 182 210.635 182ZM217.035 189.775H214.585C214.085 191.25 212.785 192.3 210.735 192.3C208.41 192.3 206.46 190.775 206.285 188H217.235C217.285 187.525 217.31 187.125 217.31 186.625C217.31 182.875 214.71 180.075 210.735 180.075C206.735 180.075 203.96 182.8 203.96 187.125C203.96 191.475 206.835 194.225 210.735 194.225C214.135 194.225 216.335 192.275 217.035 189.775ZM222.963 186.55C222.963 183.375 224.613 182.4 226.788 182.4H227.388V180.05C225.213 180.05 223.738 181 222.963 182.525V180.3H220.688V194H222.963V186.55ZM121.611 214.55H112.236V232H121.611V230.125H114.511V224.125H120.861V222.25H114.511V216.425H121.611V214.55ZM125.853 232H128.128V220.175H131.003V218.3H128.128V217.325C128.128 215.55 128.803 214.8 130.853 214.8V212.9C127.353 212.9 125.853 214.275 125.853 217.325V218.3H124.078V220.175H125.853V232ZM134.455 232H136.73V220.175H139.605V218.3H136.73V217.325C136.73 215.55 137.405 214.8 139.455 214.8V212.9C135.955 212.9 134.455 214.275 134.455 217.325V218.3H132.68V220.175H134.455V232ZM148.458 220C150.808 220 152.808 221.475 152.783 224.15H144.133C144.383 221.475 146.233 220 148.458 220ZM154.858 227.775H152.408C151.908 229.25 150.608 230.3 148.558 230.3C146.233 230.3 144.283 228.775 144.108 226H155.058C155.108 225.525 155.133 225.125 155.133 224.625C155.133 220.875 152.533 218.075 148.558 218.075C144.558 218.075 141.783 220.8 141.783 225.125C141.783 229.475 144.658 232.225 148.558 232.225C151.958 232.225 154.158 230.275 154.858 227.775ZM157.661 225.125C157.661 229.475 160.436 232.225 164.336 232.225C167.736 232.225 169.961 230.325 170.661 227.6H168.211C167.711 229.325 166.361 230.3 164.336 230.3C161.836 230.3 159.986 228.525 159.986 225.125C159.986 221.775 161.836 220 164.336 220C166.361 220 167.736 221.05 168.211 222.7H170.661C169.961 219.825 167.736 218.075 164.336 218.075C160.436 218.075 157.661 220.825 157.661 225.125ZM174.571 228.25C174.571 231 175.946 232 178.371 232H180.421V230.075H178.746C177.346 230.075 176.846 229.6 176.846 228.25V220.175H180.421V218.3H176.846V214.85H174.571V218.3H172.796V220.175H174.571V228.25ZM193.403 228.275C193.303 223.375 185.353 225.15 185.353 221.9C185.353 220.8 186.353 220 188.028 220C189.853 220 190.903 221 191.003 222.375H193.278C193.128 219.7 191.128 218.075 188.103 218.075C185.053 218.075 183.078 219.8 183.078 221.9C183.078 227 191.178 225.225 191.178 228.275C191.178 229.4 190.178 230.3 188.378 230.3C186.453 230.3 185.278 229.3 185.153 227.975H182.803C182.953 230.475 185.203 232.225 188.403 232.225C191.428 232.225 193.403 230.525 193.403 228.275Z" fill="white"/>
<path d="M203 86C203 118.033 177.033 144 145 144C112.967 144 87 118.033 87 86C87 53.9675 112.967 28 145 28C177.033 28 203 53.9675 203 86ZM96.987 86C96.987 112.517 118.483 134.013 145 134.013C171.517 134.013 193.013 112.517 193.013 86C193.013 59.4832 171.517 37.987 145 37.987C118.483 37.987 96.987 59.4832 96.987 86Z" fill="white"/>
<g filter="url(#filter1_d_105_106)">
<mask id="path-5-inside-1_105_106" fill="white">
<path d="M145 32.9935C145 30.2357 147.24 27.9777 149.987 28.2148C161.692 29.2248 172.858 33.7718 181.971 41.3102C192.37 49.9134 199.444 61.8741 201.973 75.1319C204.502 88.3897 202.328 102.114 195.826 113.942C189.324 125.769 178.9 134.959 166.351 139.927C153.802 144.896 139.913 145.332 127.077 141.161C114.241 136.991 103.261 128.474 96.029 117.078C88.797 105.682 85.7657 92.1211 87.4573 78.7307C88.9396 66.9975 93.9667 56.0391 101.808 47.2905C103.648 45.2368 106.827 45.3495 108.715 47.3599V47.3599C110.602 49.3703 110.48 52.515 108.677 54.6014C102.511 61.7337 98.5565 70.556 97.3656 79.9824C95.9653 91.0671 98.4746 102.293 104.461 111.727C110.448 121.16 119.537 128.21 130.163 131.663C140.789 135.116 152.287 134.754 162.675 130.641C173.063 126.528 181.692 118.921 187.074 109.13C192.457 99.3396 194.256 87.9782 192.163 77.0033C190.069 66.0284 184.213 56.1272 175.605 49.0054C168.284 42.949 159.362 39.2251 149.985 38.2464C147.242 37.9601 145 35.7514 145 32.9935V32.9935Z"/>
</mask>
<path d="M145 32.9935C145 30.2357 147.24 27.9777 149.987 28.2148C161.692 29.2248 172.858 33.7718 181.971 41.3102C192.37 49.9134 199.444 61.8741 201.973 75.1319C204.502 88.3897 202.328 102.114 195.826 113.942C189.324 125.769 178.9 134.959 166.351 139.927C153.802 144.896 139.913 145.332 127.077 141.161C114.241 136.991 103.261 128.474 96.029 117.078C88.797 105.682 85.7657 92.1211 87.4573 78.7307C88.9396 66.9975 93.9667 56.0391 101.808 47.2905C103.648 45.2368 106.827 45.3495 108.715 47.3599V47.3599C110.602 49.3703 110.48 52.515 108.677 54.6014C102.511 61.7337 98.5565 70.556 97.3656 79.9824C95.9653 91.0671 98.4746 102.293 104.461 111.727C110.448 121.16 119.537 128.21 130.163 131.663C140.789 135.116 152.287 134.754 162.675 130.641C173.063 126.528 181.692 118.921 187.074 109.13C192.457 99.3396 194.256 87.9782 192.163 77.0033C190.069 66.0284 184.213 56.1272 175.605 49.0054C168.284 42.949 159.362 39.2251 149.985 38.2464C147.242 37.9601 145 35.7514 145 32.9935V32.9935Z" stroke="url(#paint4_linear_105_106)" stroke-width="20" stroke-linecap="round" stroke-linejoin="round" shape-rendering="crispEdges" mask="url(#path-5-inside-1_105_106)"/>
</g>
<path d="M121.77 71.935C116.905 71.935 114.455 74 114.455 78.165C114.455 80.79 115.26 82.19 117.535 83.17C114.91 84.15 113.825 85.76 113.825 88.735C113.825 93.145 116.45 95.35 121.735 95.35C127.02 95.35 129.68 93.145 129.68 88.7C129.68 85.76 128.63 84.15 126.11 83.17C128.35 82.19 129.085 80.79 129.085 78.165C129.085 74.07 126.915 71.935 121.77 71.935ZM116.59 88.56C116.59 85.725 118.13 84.395 121.77 84.395C125.41 84.395 126.95 85.725 126.95 88.56C126.95 91.5 125.55 92.795 121.77 92.795C117.99 92.795 116.59 91.5 116.59 88.56ZM117.15 78.34C117.15 75.645 118.2 74.49 121.735 74.49C125.34 74.49 126.39 75.68 126.39 78.34C126.39 81.035 125.095 82.155 121.77 82.155C118.445 82.155 117.15 81.105 117.15 78.34ZM141.469 71.935C136.604 71.935 134.154 74 134.154 78.165C134.154 80.79 134.959 82.19 137.234 83.17C134.609 84.15 133.524 85.76 133.524 88.735C133.524 93.145 136.149 95.35 141.434 95.35C146.719 95.35 149.379 93.145 149.379 88.7C149.379 85.76 148.329 84.15 145.809 83.17C148.049 82.19 148.784 80.79 148.784 78.165C148.784 74.07 146.614 71.935 141.469 71.935ZM136.289 88.56C136.289 85.725 137.829 84.395 141.469 84.395C145.109 84.395 146.649 85.725 146.649 88.56C146.649 91.5 145.249 92.795 141.469 92.795C137.689 92.795 136.289 91.5 136.289 88.56ZM136.849 78.34C136.849 75.645 137.899 74.49 141.434 74.49C145.039 74.49 146.089 75.68 146.089 78.34C146.089 81.035 144.794 82.155 141.469 82.155C138.144 82.155 136.849 81.105 136.849 78.34ZM170.934 72.25C169.989 72.25 169.639 72.46 169.184 73.3L158.474 93.95C158.019 94.79 158.159 95 159.104 95H159.489C160.434 95 160.784 94.79 161.239 93.95L171.949 73.3C172.404 72.46 172.264 72.25 171.319 72.25H170.934ZM163.759 77.64C163.759 73.825 162.009 71.935 158.509 71.935C154.974 71.935 153.224 73.825 153.224 77.64C153.224 81.42 154.974 83.31 158.509 83.31C162.009 83.31 163.759 81.42 163.759 77.64ZM158.509 74.105C160.609 74.105 161.449 75.12 161.449 77.64C161.449 80.16 160.609 81.14 158.509 81.14C156.374 81.14 155.569 80.16 155.569 77.64C155.569 75.12 156.374 74.105 158.509 74.105ZM177.164 89.61C177.164 85.83 175.414 83.94 171.879 83.94C168.379 83.94 166.629 85.83 166.629 89.61C166.629 93.425 168.379 95.315 171.879 95.315C175.414 95.315 177.164 93.425 177.164 89.61ZM171.879 93.145C169.779 93.145 168.974 92.13 168.974 89.61C168.974 87.09 169.779 86.11 171.879 86.11C173.979 86.11 174.819 87.09 174.819 89.61C174.819 92.13 174.014 93.145 171.879 93.145Z" fill="white"/>
<g filter="url(#filter2_d_105_106)">
<path d="M235.436 244.907C235.232 244.274 235.048 243.661 234.844 243.029C234.64 242.396 234.456 241.804 234.293 241.211C234.129 240.64 233.986 240.109 233.843 239.619H233.803C233.619 240.497 233.394 241.375 233.108 242.253C232.802 243.233 232.496 244.254 232.169 245.274C231.904 246.316 231.577 247.275 231.271 248.133H236.457C236.334 247.704 236.171 247.194 235.987 246.663C235.803 246.111 235.62 245.519 235.436 244.907V244.907ZM252.953 244.315C251.83 244.254 250.769 244.846 250.238 245.866C249.993 246.336 249.85 246.826 249.789 247.336H254.095C254.625 247.336 255.013 247.336 255.258 247.316C255.422 247.296 255.585 247.255 255.728 247.153V246.949C255.72 246.593 255.642 246.243 255.498 245.917C255.354 245.592 255.147 245.299 254.889 245.054C254.631 244.809 254.327 244.618 253.995 244.491C253.663 244.364 253.309 244.304 252.953 244.315ZM258.323 223.612H226.677C221.879 223.612 218 227.491 218 232.289V262.71C218 267.508 221.879 271.387 226.677 271.387H258.323C263.121 271.387 267 267.508 267 262.71V232.289C267 227.491 263.121 223.612 258.323 223.612ZM243.95 257.322H239.683C239.54 257.343 239.397 257.239 239.356 257.098L237.682 252.198H230.087L228.535 257.016C228.494 257.2 228.331 257.322 228.147 257.302H224.309C224.084 257.302 224.023 257.179 224.084 256.934L230.658 238.088C230.72 237.884 230.781 237.7 230.863 237.455C230.944 237.026 230.985 236.577 230.985 236.128C230.965 236.026 231.046 235.924 231.148 235.903H236.436C236.579 235.903 236.681 235.964 236.702 236.066L244.154 256.994C244.215 257.218 244.156 257.322 243.95 257.322ZM259.979 249.174C259.936 249.56 259.915 249.848 259.895 250.031C259.875 250.174 259.754 250.297 259.609 250.297C259.487 250.297 259.262 250.317 258.935 250.34C258.611 250.381 258.221 250.399 257.753 250.399C257.284 250.399 256.792 250.317 256.263 250.317H249.791C249.87 250.95 250.077 251.583 250.424 252.134C250.785 252.684 251.304 253.112 251.912 253.361C252.729 253.709 253.629 253.892 254.527 253.872C255.242 253.849 255.955 253.79 256.649 253.647C257.272 253.568 257.884 253.41 258.468 253.178C258.57 253.098 258.631 253.137 258.631 253.341V256.467C258.631 256.546 258.611 256.63 258.588 256.71C258.552 256.767 258.504 256.815 258.447 256.853C257.794 257.139 257.12 257.343 256.406 257.465C255.444 257.649 254.487 257.731 253.507 257.71C251.953 257.71 250.648 257.465 249.587 256.996C248.588 256.561 247.706 255.896 247.012 255.056C246.361 254.26 245.889 253.361 245.603 252.381C245.318 251.413 245.174 250.408 245.177 249.399C245.177 248.298 245.34 247.214 245.687 246.152C246.014 245.131 246.524 244.192 247.218 243.355C247.892 242.539 248.727 241.885 249.687 241.416C250.648 240.946 251.79 240.783 253.096 240.783C254.185 240.757 255.266 240.973 256.261 241.416C257.098 241.783 257.833 242.334 258.405 243.049C258.935 243.743 259.364 244.519 259.632 245.376C259.895 246.193 260.018 247.03 260.018 247.867C260.018 248.357 259.997 248.786 259.979 249.174V249.174Z" fill="white"/>
</g>
<defs>
<filter id="filter0_b_105_106" x="-103" y="-103" width="497" height="497" filterUnits="userSpaceOnUse" color-interpolation-filters="sRGB">
<feFlood flood-opacity="0" result="BackgroundImageFix"/>
<feGaussianBlur in="BackgroundImage" stdDeviation="51.5"/>
<feComposite in2="SourceAlpha" operator="in" result="effect1_backgroundBlur_105_106"/>
<feBlend mode="normal" in="SourceGraphic" in2="effect1_backgroundBlur_105_106" result="shape"/>
</filter>
<filter id="filter1_d_105_106" x="74.9999" y="16.1978" width="140" height="139.802" filterUnits="userSpaceOnUse" color-interpolation-filters="sRGB">
<feFlood flood-opacity="0" result="BackgroundImageFix"/>
<feColorMatrix in="SourceAlpha" type="matrix" values="0 0 0 0 0 0 0 0 0 0 0 0 0 0 0 0 0 0 127 0" result="hardAlpha"/>
<feMorphology radius="2" operator="dilate" in="SourceAlpha" result="effect1_dropShadow_105_106"/>
<feOffset/>
<feGaussianBlur stdDeviation="5"/>
<feComposite in2="hardAlpha" operator="out"/>
<feColorMatrix type="matrix" values="0 0 0 0 0 0 0 0 0 0 0 0 0 0 0 0 0 0 0.25 0"/>
<feBlend mode="normal" in2="BackgroundImageFix" result="effect1_dropShadow_105_106"/>
<feBlend mode="normal" in="SourceGraphic" in2="effect1_dropShadow_105_106" result="shape"/>
</filter>
<filter id="filter2_d_105_106" x="206" y="211" width="73" height="73" filterUnits="userSpaceOnUse" color-interpolation-filters="sRGB">
<feFlood flood-opacity="0" result="BackgroundImageFix"/>
<feColorMatrix in="SourceAlpha" type="matrix" values="0 0 0 0 0 0 0 0 0 0 0 0 0 0 0 0 0 0 127 0" result="hardAlpha"/>
<feOffset/>
<feGaussianBlur stdDeviation="6"/>
<feColorMatrix type="matrix" values="0 0 0 0 0 0 0 0 0 0 0 0 0 0 0 0 0 0 0.31 0"/>
<feBlend mode="normal" in2="BackgroundImageFix" result="effect1_dropShadow_105_106"/>
<feBlend mode="normal" in="SourceGraphic" in2="effect1_dropShadow_105_106" result="shape"/>
</filter>
<linearGradient id="paint0_linear_105_106" x1="-7.64209e-06" y1="6.54365" x2="233.86" y2="320.139" gradientUnits="userSpaceOnUse">
<stop stop-color="#1E005E"/>
<stop offset="1" stop-color="#FF0000"/>
</linearGradient>
<radialGradient id="paint1_radial_105_106" cx="0" cy="0" r="1" gradientUnits="userSpaceOnUse" gradientTransform="translate(145.5 145.5) rotate(90) scale(145.5)">
<stop stop-color="white"/>
<stop offset="1" stop-color="white" stop-opacity="0"/>
</radialGradient>
<radialGradient id="paint2_radial_105_106" cx="0" cy="0" r="1" gradientUnits="userSpaceOnUse" gradientTransform="translate(145.5 145.5) rotate(90) scale(145.5)">
<stop stop-color="#E64467"/>
<stop offset="1" stop-opacity="0"/>
</radialGradient>
<radialGradient id="paint3_radial_105_106" cx="0" cy="0" r="1" gradientUnits="userSpaceOnUse" gradientTransform="translate(145.5 145.5) rotate(90) scale(145.5)">
<stop stop-color="#151515"/>
<stop offset="1" stop-color="#151515" stop-opacity="0"/>
</radialGradient>
<linearGradient id="paint4_linear_105_106" x1="145" y1="28" x2="144.134" y2="152.657" gradientUnits="userSpaceOnUse">
<stop offset="0.0348612" stop-color="#DF8E26"/>
<stop offset="0.44466" stop-color="#80A572"/>
<stop offset="1" stop-color="#22BCBC"/>
</linearGradient>
</defs>
</svg>
