<svg width="291" height="291" viewBox="0 0 291 291" fill="none" xmlns="http://www.w3.org/2000/svg">
<g filter="url(#filter0_b_105_78)">
<rect width="291" height="291" rx="31" fill="url(#paint0_linear_105_78)" fill-opacity="0.7"/>
<rect x="1.75" y="1.75" width="287.5" height="287.5" rx="29.25" stroke="url(#paint1_radial_105_78)" stroke-width="3.5"/>
<rect x="1.75" y="1.75" width="287.5" height="287.5" rx="29.25" stroke="url(#paint2_radial_105_78)" stroke-opacity="0.2" stroke-width="3.5"/>
<rect x="1.75" y="1.75" width="287.5" height="287.5" rx="29.25" stroke="url(#paint3_radial_105_78)" stroke-opacity="0.2" stroke-width="3.5"/>
</g>
<path d="M44.625 197H47.025L40.75 179.675H38.125L31.825 197H34.225L35.625 193.125H43.225L44.625 197ZM42.575 191.275H36.275L39.425 182.475L42.575 191.275ZM49.2957 190.1C49.2957 194.35 52.1207 197.225 55.7957 197.225C58.2957 197.225 60.0707 195.95 60.8957 194.425V197H63.1957V178.5H60.8957V185.75C59.9457 184.175 57.9707 183.075 55.8207 183.075C52.1207 183.075 49.2957 185.825 49.2957 190.1ZM60.8957 190.125C60.8957 193.35 58.7457 195.225 56.2457 195.225C53.7457 195.225 51.6207 193.325 51.6207 190.1C51.6207 186.875 53.7457 185.05 56.2457 185.05C58.7457 185.05 60.8957 186.95 60.8957 190.125ZM80.4152 190.125C80.4152 185.8 77.3902 183.075 73.4902 183.075C69.6152 183.075 66.5652 185.8 66.5652 190.125C66.5652 194.475 69.5152 197.225 73.3902 197.225C77.2902 197.225 80.4152 194.475 80.4152 190.125ZM68.8902 190.125C68.8902 186.675 71.0652 185.05 73.4652 185.05C75.8152 185.05 78.0902 186.675 78.0902 190.125C78.0902 193.6 75.7652 195.225 73.3902 195.225C71.0152 195.225 68.8902 193.6 68.8902 190.125ZM86.0564 185.85V178.5H83.7814V197H86.0564V194.475C86.9064 195.975 88.6814 197.225 91.1814 197.225C94.8564 197.225 97.6814 194.35 97.6814 190.1C97.6814 185.825 94.8814 183.075 91.1814 183.075C88.7564 183.075 86.9314 184.325 86.0564 185.85ZM95.3564 190.1C95.3564 193.325 93.2314 195.225 90.7064 195.225C88.2314 195.225 86.0564 193.35 86.0564 190.125C86.0564 186.95 88.2314 185.05 90.7064 185.05C93.2314 185.05 95.3564 186.875 95.3564 190.1ZM106.876 185C109.226 185 111.226 186.475 111.201 189.15H102.551C102.801 186.475 104.651 185 106.876 185ZM113.276 192.775H110.826C110.326 194.25 109.026 195.3 106.976 195.3C104.651 195.3 102.701 193.775 102.526 191H113.476C113.526 190.525 113.551 190.125 113.551 189.625C113.551 185.875 110.951 183.075 106.976 183.075C102.976 183.075 100.201 185.8 100.201 190.125C100.201 194.475 103.076 197.225 106.976 197.225C110.376 197.225 112.576 195.275 113.276 192.775ZM123.969 197H126.244V183.3H123.969V197ZM125.144 181.075C125.969 181.075 126.644 180.4 126.644 179.525C126.644 178.65 125.969 177.975 125.144 177.975C124.269 177.975 123.594 178.65 123.594 179.525C123.594 180.4 124.269 181.075 125.144 181.075ZM130.496 197H132.771V178.5H130.496V197ZM137.024 197H139.299V178.5H137.024V197ZM155.701 183.3H153.426V190.825C153.426 193.775 151.851 195.225 149.501 195.225C147.201 195.225 145.676 193.8 145.676 191.025V183.3H143.426V191.325C143.426 195.25 145.901 197.2 149.051 197.2C150.876 197.2 152.551 196.4 153.426 194.975V197H155.701V183.3ZM169.767 193.275C169.667 188.375 161.717 190.15 161.717 186.9C161.717 185.8 162.717 185 164.392 185C166.217 185 167.267 186 167.367 187.375H169.642C169.492 184.7 167.492 183.075 164.467 183.075C161.417 183.075 159.442 184.8 159.442 186.9C159.442 192 167.542 190.225 167.542 193.275C167.542 194.4 166.542 195.3 164.742 195.3C162.817 195.3 161.642 194.3 161.517 192.975H159.167C159.317 195.475 161.567 197.225 164.767 197.225C167.792 197.225 169.767 195.525 169.767 193.275ZM173.854 193.25C173.854 196 175.229 197 177.654 197H179.704V195.075H178.029C176.629 195.075 176.129 194.6 176.129 193.25V185.175H179.704V183.3H176.129V179.85H173.854V183.3H172.079V185.175H173.854V193.25ZM185.11 189.55C185.11 186.375 186.76 185.4 188.935 185.4H189.535V183.05C187.36 183.05 185.885 184 185.11 185.525V183.3H182.835V197H185.11V189.55ZM191.686 190.1C191.686 194.35 194.511 197.225 198.161 197.225C200.686 197.225 202.461 195.925 203.286 194.45V197H205.586V183.3H203.286V185.8C202.486 184.375 200.736 183.075 198.186 183.075C194.511 183.075 191.686 185.825 191.686 190.1ZM203.286 190.125C203.286 193.35 201.136 195.225 198.636 195.225C196.136 195.225 194.011 193.325 194.011 190.1C194.011 186.875 196.136 185.05 198.636 185.05C201.136 185.05 203.286 186.95 203.286 190.125ZM210.306 193.25C210.306 196 211.681 197 214.106 197H216.156V195.075H214.481C213.081 195.075 212.581 194.6 212.581 193.25V185.175H216.156V183.3H212.581V179.85H210.306V183.3H208.531V185.175H210.306V193.25ZM232.287 190.125C232.287 185.8 229.262 183.075 225.362 183.075C221.487 183.075 218.437 185.8 218.437 190.125C218.437 194.475 221.387 197.225 225.262 197.225C229.162 197.225 232.287 194.475 232.287 190.125ZM220.762 190.125C220.762 186.675 222.937 185.05 225.337 185.05C227.687 185.05 229.962 186.675 229.962 190.125C229.962 193.6 227.637 195.225 225.262 195.225C222.887 195.225 220.762 193.6 220.762 190.125ZM237.929 189.55C237.929 186.375 239.579 185.4 241.754 185.4H242.354V183.05C240.179 183.05 238.704 184 237.929 185.525V183.3H235.654V197H237.929V189.55Z" fill="white"/>
<path d="M203 86C203 118.033 177.033 144 145 144C112.967 144 87 118.033 87 86C87 53.9675 112.967 28 145 28C177.033 28 203 53.9675 203 86ZM96.987 86C96.987 112.517 118.483 134.013 145 134.013C171.517 134.013 193.013 112.517 193.013 86C193.013 59.4832 171.517 37.987 145 37.987C118.483 37.987 96.987 59.4832 96.987 86Z" fill="white"/>
<g filter="url(#filter1_d_105_78)">
<mask id="path-5-inside-1_105_78" fill="white">
<path d="M145 32.9935C145 30.2357 147.24 27.9777 149.988 28.2148C160.465 29.119 170.533 32.8591 179.092 39.077C189.001 46.2764 196.376 56.4281 200.161 68.077C203.946 79.7259 203.946 92.2741 200.161 103.923C196.376 115.572 189.001 125.724 179.092 132.923C169.182 140.122 157.248 144 145 144C132.752 144 120.818 140.122 110.908 132.923C100.999 125.724 93.6237 115.572 89.8387 103.923C86.5698 93.8621 86.1241 83.1306 88.5018 72.8869C89.1253 70.2004 91.965 68.7679 94.5878 69.6201V69.6201C97.2107 70.4723 98.6186 73.2869 98.0433 75.9841C96.2888 84.2093 96.72 92.7827 99.337 100.837C102.47 110.48 108.576 118.884 116.779 124.843C124.982 130.803 134.861 134.013 145 134.013C155.139 134.013 165.018 130.803 173.221 124.843C181.424 118.884 187.53 110.48 190.663 100.837C193.796 91.1937 193.796 80.8063 190.663 71.1632C187.53 61.5201 181.424 53.1164 173.221 47.1567C166.37 42.179 158.35 39.1195 149.985 38.2464C147.242 37.9601 145 35.7514 145 32.9935V32.9935Z"/>
</mask>
<path d="M145 32.9935C145 30.2357 147.24 27.9777 149.988 28.2148C160.465 29.119 170.533 32.8591 179.092 39.077C189.001 46.2764 196.376 56.4281 200.161 68.077C203.946 79.7259 203.946 92.2741 200.161 103.923C196.376 115.572 189.001 125.724 179.092 132.923C169.182 140.122 157.248 144 145 144C132.752 144 120.818 140.122 110.908 132.923C100.999 125.724 93.6237 115.572 89.8387 103.923C86.5698 93.8621 86.1241 83.1306 88.5018 72.8869C89.1253 70.2004 91.965 68.7679 94.5878 69.6201V69.6201C97.2107 70.4723 98.6186 73.2869 98.0433 75.9841C96.2888 84.2093 96.72 92.7827 99.337 100.837C102.47 110.48 108.576 118.884 116.779 124.843C124.982 130.803 134.861 134.013 145 134.013C155.139 134.013 165.018 130.803 173.221 124.843C181.424 118.884 187.53 110.48 190.663 100.837C193.796 91.1937 193.796 80.8063 190.663 71.1632C187.53 61.5201 181.424 53.1164 173.221 47.1567C166.37 42.179 158.35 39.1195 149.985 38.2464C147.242 37.9601 145 35.7514 145 32.9935V32.9935Z" stroke="url(#paint4_linear_105_78)" stroke-width="20" stroke-linecap="round" stroke-linejoin="round" shape-rendering="crispEdges" mask="url(#path-5-inside-1_105_78)"/>
</g>
<path d="M122.692 86.005C124.757 86.005 126.472 85.76 127.767 85.27V87.02C127.767 89.155 127.347 90.625 126.542 91.5C125.737 92.375 124.267 92.795 122.097 92.795C120.382 92.795 118.737 92.515 117.197 91.99C116.392 91.71 116.112 91.92 116.112 92.795V93.285C116.112 94.02 116.287 94.23 117.232 94.615C118.527 95.105 120.102 95.35 121.957 95.35C128.082 95.35 130.497 92.83 130.497 86.95V80.685C130.497 74.91 128.292 71.935 122.727 71.935C117.652 71.935 115.202 74.21 115.202 79.25C115.202 84.045 117.512 86.005 122.692 86.005ZM123.042 83.625C119.262 83.625 117.932 82.505 117.932 79.11C117.932 75.785 119.157 74.49 122.517 74.49C124.617 74.49 126.017 75.015 126.717 76.03C127.417 77.045 127.767 78.655 127.767 80.86V82.82C126.472 83.345 124.897 83.625 123.042 83.625ZM147.645 77.78C147.645 73.895 145.09 71.935 140.015 71.935C138.405 71.935 136.795 72.145 135.22 72.6C134.345 72.845 134.1 73.02 134.1 73.86V74.42C134.1 75.295 134.345 75.54 135.15 75.26C136.48 74.735 138.125 74.49 140.05 74.49C143.515 74.49 144.915 75.575 144.915 77.92C144.915 79.495 144.215 80.545 141.8 82.505L135.885 87.265C134.24 88.63 133.4 90.1 133.4 91.71C133.4 93.95 134.59 95 137.915 95H146.56C147.435 95 147.645 94.79 147.645 93.915V93.53C147.645 92.655 147.435 92.445 146.56 92.445H138.055C136.41 92.445 136.06 92.13 136.06 91.325C136.06 90.625 136.34 90.17 137.46 89.295L143.865 84.115C146.56 81.98 147.645 80.195 147.645 77.78ZM169.276 72.25C168.331 72.25 167.981 72.46 167.526 73.3L156.816 93.95C156.361 94.79 156.501 95 157.446 95H157.831C158.776 95 159.126 94.79 159.581 93.95L170.291 73.3C170.746 72.46 170.606 72.25 169.661 72.25H169.276ZM162.101 77.64C162.101 73.825 160.351 71.935 156.851 71.935C153.316 71.935 151.566 73.825 151.566 77.64C151.566 81.42 153.316 83.31 156.851 83.31C160.351 83.31 162.101 81.42 162.101 77.64ZM156.851 74.105C158.951 74.105 159.791 75.12 159.791 77.64C159.791 80.16 158.951 81.14 156.851 81.14C154.716 81.14 153.911 80.16 153.911 77.64C153.911 75.12 154.716 74.105 156.851 74.105ZM175.506 89.61C175.506 85.83 173.756 83.94 170.221 83.94C166.721 83.94 164.971 85.83 164.971 89.61C164.971 93.425 166.721 95.315 170.221 95.315C173.756 95.315 175.506 93.425 175.506 89.61ZM170.221 93.145C168.121 93.145 167.316 92.13 167.316 89.61C167.316 87.09 168.121 86.11 170.221 86.11C172.321 86.11 173.161 87.09 173.161 89.61C173.161 92.13 172.356 93.145 170.221 93.145Z" fill="white"/>
<g filter="url(#filter2_d_105_78)">
<path d="M233.06 242.46C232.86 241.84 232.68 241.24 232.48 240.62C232.28 240 232.1 239.42 231.94 238.84C231.78 238.28 231.64 237.76 231.5 237.28H231.46C231.28 238.14 231.06 239 230.78 239.86C230.48 240.82 230.18 241.82 229.86 242.82C229.58 243.84 229.28 244.78 228.98 245.62H234.06C233.94 245.198 233.78 244.7 233.6 244.178C233.42 243.64 233.24 243.06 233.06 242.46V242.46ZM251.5 221.6H220.5C215.8 221.6 212 225.4 212 230.1V259.9C212 264.6 215.8 268.4 220.5 268.4H251.5C256.2 268.4 260 264.6 260 259.9V230.1C260 225.4 256.2 221.6 251.5 221.6ZM241.4 254.66H237.218C237.08 254.68 236.94 254.58 236.9 254.44L235.26 249.68H227.82L226.3 254.38C226.26 254.56 226.1 254.68 225.92 254.662H222.16C221.94 254.662 221.88 254.54 221.94 254.302L228.38 235.76C228.44 235.56 228.5 235.34 228.58 235.1C228.66 234.68 228.7 234.24 228.7 233.8C228.68 233.7 228.76 233.6 228.86 233.58H234.04C234.2 233.58 234.28 233.64 234.3 233.74L241.6 254.34C241.66 254.558 241.6 254.66 241.4 254.66V254.66ZM248.2 254.36C248.2 254.58 248.122 254.68 247.942 254.68H244.02C243.82 254.68 243.72 254.558 243.72 254.36V238.96C243.72 238.76 243.802 238.68 243.982 238.68H247.942C248.122 238.68 248.2 238.78 248.2 238.96V254.36V254.36ZM247.782 236.3C247.546 236.54 247.261 236.727 246.947 236.847C246.633 236.968 246.296 237.02 245.96 237C245.3 237.02 244.66 236.76 244.178 236.3C243.72 235.799 243.476 235.139 243.498 234.46C243.478 233.78 243.738 233.14 244.216 232.68C244.7 232.22 245.34 231.98 246 231.98C246.782 231.98 247.378 232.22 247.82 232.68C248.26 233.16 248.5 233.8 248.48 234.46C248.5 235.14 248.26 235.8 247.782 236.3V236.3Z" fill="white"/>
</g>
<defs>
<filter id="filter0_b_105_78" x="-103" y="-103" width="497" height="497" filterUnits="userSpaceOnUse" color-interpolation-filters="sRGB">
<feFlood flood-opacity="0" result="BackgroundImageFix"/>
<feGaussianBlur in="BackgroundImage" stdDeviation="51.5"/>
<feComposite in2="SourceAlpha" operator="in" result="effect1_backgroundBlur_105_78"/>
<feBlend mode="normal" in="SourceGraphic" in2="effect1_backgroundBlur_105_78" result="shape"/>
</filter>
<filter id="filter1_d_105_78" x="75" y="16.1978" width="140" height="139.802" filterUnits="userSpaceOnUse" color-interpolation-filters="sRGB">
<feFlood flood-opacity="0" result="BackgroundImageFix"/>
<feColorMatrix in="SourceAlpha" type="matrix" values="0 0 0 0 0 0 0 0 0 0 0 0 0 0 0 0 0 0 127 0" result="hardAlpha"/>
<feMorphology radius="2" operator="dilate" in="SourceAlpha" result="effect1_dropShadow_105_78"/>
<feOffset/>
<feGaussianBlur stdDeviation="5"/>
<feComposite in2="hardAlpha" operator="out"/>
<feColorMatrix type="matrix" values="0 0 0 0 0 0 0 0 0 0 0 0 0 0 0 0 0 0 0.25 0"/>
<feBlend mode="normal" in2="BackgroundImageFix" result="effect1_dropShadow_105_78"/>
<feBlend mode="normal" in="SourceGraphic" in2="effect1_dropShadow_105_78" result="shape"/>
</filter>
<filter id="filter2_d_105_78" x="200" y="209" width="72" height="72" filterUnits="userSpaceOnUse" color-interpolation-filters="sRGB">
<feFlood flood-opacity="0" result="BackgroundImageFix"/>
<feColorMatrix in="SourceAlpha" type="matrix" values="0 0 0 0 0 0 0 0 0 0 0 0 0 0 0 0 0 0 127 0" result="hardAlpha"/>
<feOffset/>
<feGaussianBlur stdDeviation="6"/>
<feColorMatrix type="matrix" values="0 0 0 0 0 0 0 0 0 0 0 0 0 0 0 0 0 0 0.31 0"/>
<feBlend mode="normal" in2="BackgroundImageFix" result="effect1_dropShadow_105_78"/>
<feBlend mode="normal" in="SourceGraphic" in2="effect1_dropShadow_105_78" result="shape"/>
</filter>
<linearGradient id="paint0_linear_105_78" x1="-7.64209e-06" y1="6.54365" x2="233.86" y2="320.139" gradientUnits="userSpaceOnUse">
<stop stop-color="#1E005E"/>
<stop offset="1" stop-color="#FF0000"/>
</linearGradient>
<radialGradient id="paint1_radial_105_78" cx="0" cy="0" r="1" gradientUnits="userSpaceOnUse" gradientTransform="translate(145.5 145.5) rotate(90) scale(145.5)">
<stop stop-color="white"/>
<stop offset="1" stop-color="white" stop-opacity="0"/>
</radialGradient>
<radialGradient id="paint2_radial_105_78" cx="0" cy="0" r="1" gradientUnits="userSpaceOnUse" gradientTransform="translate(145.5 145.5) rotate(90) scale(145.5)">
<stop stop-color="#E64467"/>
<stop offset="1" stop-opacity="0"/>
</radialGradient>
<radialGradient id="paint3_radial_105_78" cx="0" cy="0" r="1" gradientUnits="userSpaceOnUse" gradientTransform="translate(145.5 145.5) rotate(90) scale(145.5)">
<stop stop-color="#151515"/>
<stop offset="1" stop-color="#151515" stop-opacity="0"/>
</radialGradient>
<linearGradient id="paint4_linear_105_78" x1="145" y1="28" x2="144.134" y2="152.657" gradientUnits="userSpaceOnUse">
<stop offset="0.0348612" stop-color="#DF8E26"/>
<stop offset="0.44466" stop-color="#80A572"/>
<stop offset="1" stop-color="#22BCBC"/>
</linearGradient>
</defs>
</svg>
