<svg width="291" height="291" viewBox="0 0 291 291" fill="none" xmlns="http://www.w3.org/2000/svg">
<g filter="url(#filter0_b_105_96)">
<rect width="291" height="291" rx="31" fill="url(#paint0_linear_105_96)" fill-opacity="0.7"/>
<rect x="1.75" y="1.75" width="287.5" height="287.5" rx="29.25" stroke="url(#paint1_radial_105_96)" stroke-width="3.5"/>
<rect x="1.75" y="1.75" width="287.5" height="287.5" rx="29.25" stroke="url(#paint2_radial_105_96)" stroke-opacity="0.2" stroke-width="3.5"/>
<rect x="1.75" y="1.75" width="287.5" height="287.5" rx="29.25" stroke="url(#paint3_radial_105_96)" stroke-opacity="0.2" stroke-width="3.5"/>
</g>
<path d="M106.527 213H108.802V205.15H114.952V203.3H108.802V197.425H116.377V195.575H106.527V213ZM119.5 213H121.775V199.3H119.5V213ZM120.675 197.075C121.5 197.075 122.175 196.4 122.175 195.525C122.175 194.65 121.5 193.975 120.675 193.975C119.8 193.975 119.125 194.65 119.125 195.525C119.125 196.4 119.8 197.075 120.675 197.075ZM125.177 206.1C125.177 210.35 128.002 213.225 131.677 213.225C134.177 213.225 135.952 211.9 136.777 210.425V213.3C136.777 216.225 134.952 217.775 132.527 217.775C130.277 217.775 128.652 216.65 128.152 215H125.902C126.352 217.925 128.927 219.75 132.527 219.75C136.552 219.75 139.077 217.075 139.077 213.3V199.3H136.777V201.8C135.977 200.325 134.177 199.075 131.677 199.075C128.002 199.075 125.177 201.825 125.177 206.1ZM136.777 206.125C136.777 209.35 134.627 211.225 132.127 211.225C129.627 211.225 127.502 209.325 127.502 206.1C127.502 202.875 129.627 201.05 132.127 201.05C134.627 201.05 136.777 202.95 136.777 206.125ZM163.072 213H165.322V204.925C165.322 201 162.897 199.05 159.772 199.05C157.672 199.05 155.722 200.125 154.922 202.1C154.022 200.05 152.147 199.05 149.897 199.05C148.097 199.05 146.472 199.825 145.572 201.275V199.3H143.297V213H145.572V205.45C145.572 202.5 147.147 201.025 149.447 201.025C151.697 201.025 153.197 202.45 153.197 205.25V213H155.447V205.45C155.447 202.5 157.022 201.025 159.322 201.025C161.572 201.025 163.072 202.45 163.072 205.25V213ZM168.578 206.1C168.578 210.35 171.403 213.225 175.053 213.225C177.578 213.225 179.353 211.925 180.178 210.45V213H182.478V199.3H180.178V201.8C179.378 200.375 177.628 199.075 175.078 199.075C171.403 199.075 168.578 201.825 168.578 206.1ZM180.178 206.125C180.178 209.35 178.028 211.225 175.528 211.225C173.028 211.225 170.903 209.325 170.903 206.1C170.903 202.875 173.028 201.05 175.528 201.05C178.028 201.05 180.178 202.95 180.178 206.125Z" fill="white"/>
<path d="M203 86C203 118.033 177.033 144 145 144C112.967 144 87 118.033 87 86C87 53.9675 112.967 28 145 28C177.033 28 203 53.9675 203 86ZM96.987 86C96.987 112.517 118.483 134.013 145 134.013C171.517 134.013 193.013 112.517 193.013 86C193.013 59.4832 171.517 37.987 145 37.987C118.483 37.987 96.987 59.4832 96.987 86Z" fill="white"/>
<g filter="url(#filter1_d_105_96)">
<mask id="path-5-inside-1_105_96" fill="white">
<path d="M145 32.9935C145 30.2357 147.24 27.9777 149.988 28.2148C160.771 29.1454 171.116 33.0798 179.824 39.6183C189.868 47.1595 197.193 57.7573 200.697 69.8185C204.201 81.8797 203.695 94.7525 199.256 106.502C194.816 118.251 186.683 128.241 176.078 134.971C165.473 141.701 152.971 144.807 140.449 143.821C127.928 142.836 116.065 137.812 106.644 129.506C97.2226 121.2 90.7521 110.061 88.2051 97.7617C85.9967 87.098 86.8414 76.0626 90.5908 65.9091C91.5461 63.322 94.5429 62.2567 97.0383 63.4309V63.4309C99.5337 64.6052 100.578 67.574 99.6689 70.1778C96.8136 78.3581 96.215 87.1914 97.9846 95.7364C100.093 105.918 105.449 115.139 113.248 122.015C121.048 128.891 130.868 133.049 141.233 133.865C151.598 134.681 161.948 132.11 170.727 126.539C179.505 120.968 186.238 112.697 189.913 102.971C193.589 93.2454 194.007 82.5892 191.107 72.6048C188.206 62.6204 182.142 53.8475 173.828 47.6048C166.85 42.3653 158.602 39.1459 149.985 38.2464C147.242 37.9601 145 35.7514 145 32.9935V32.9935Z"/>
</mask>
<path d="M145 32.9935C145 30.2357 147.24 27.9777 149.988 28.2148C160.771 29.1454 171.116 33.0798 179.824 39.6183C189.868 47.1595 197.193 57.7573 200.697 69.8185C204.201 81.8797 203.695 94.7525 199.256 106.502C194.816 118.251 186.683 128.241 176.078 134.971C165.473 141.701 152.971 144.807 140.449 143.821C127.928 142.836 116.065 137.812 106.644 129.506C97.2226 121.2 90.7521 110.061 88.2051 97.7617C85.9967 87.098 86.8414 76.0626 90.5908 65.9091C91.5461 63.322 94.5429 62.2567 97.0383 63.4309V63.4309C99.5337 64.6052 100.578 67.574 99.6689 70.1778C96.8136 78.3581 96.215 87.1914 97.9846 95.7364C100.093 105.918 105.449 115.139 113.248 122.015C121.048 128.891 130.868 133.049 141.233 133.865C151.598 134.681 161.948 132.11 170.727 126.539C179.505 120.968 186.238 112.697 189.913 102.971C193.589 93.2454 194.007 82.5892 191.107 72.6048C188.206 62.6204 182.142 53.8475 173.828 47.6048C166.85 42.3653 158.602 39.1459 149.985 38.2464C147.242 37.9601 145 35.7514 145 32.9935V32.9935Z" stroke="url(#paint4_linear_105_96)" stroke-width="20" stroke-linecap="round" stroke-linejoin="round" shape-rendering="crispEdges" mask="url(#path-5-inside-1_105_96)"/>
</g>
<path d="M122.641 71.935C117.776 71.935 115.326 74 115.326 78.165C115.326 80.79 116.131 82.19 118.406 83.17C115.781 84.15 114.696 85.76 114.696 88.735C114.696 93.145 117.321 95.35 122.606 95.35C127.891 95.35 130.551 93.145 130.551 88.7C130.551 85.76 129.501 84.15 126.981 83.17C129.221 82.19 129.956 80.79 129.956 78.165C129.956 74.07 127.786 71.935 122.641 71.935ZM117.461 88.56C117.461 85.725 119.001 84.395 122.641 84.395C126.281 84.395 127.821 85.725 127.821 88.56C127.821 91.5 126.421 92.795 122.641 92.795C118.861 92.795 117.461 91.5 117.461 88.56ZM118.021 78.34C118.021 75.645 119.071 74.49 122.606 74.49C126.211 74.49 127.261 75.68 127.261 78.34C127.261 81.035 125.966 82.155 122.641 82.155C119.316 82.155 118.021 81.105 118.021 78.34ZM148.431 77.78C148.431 73.895 145.876 71.935 140.801 71.935C139.191 71.935 137.581 72.145 136.006 72.6C135.131 72.845 134.886 73.02 134.886 73.86V74.42C134.886 75.295 135.131 75.54 135.936 75.26C137.266 74.735 138.911 74.49 140.836 74.49C144.301 74.49 145.701 75.575 145.701 77.92C145.701 79.495 145.001 80.545 142.586 82.505L136.671 87.265C135.026 88.63 134.186 90.1 134.186 91.71C134.186 93.95 135.376 95 138.701 95H147.346C148.221 95 148.431 94.79 148.431 93.915V93.53C148.431 92.655 148.221 92.445 147.346 92.445H138.841C137.196 92.445 136.846 92.13 136.846 91.325C136.846 90.625 137.126 90.17 138.246 89.295L144.651 84.115C147.346 81.98 148.431 80.195 148.431 77.78ZM170.063 72.25C169.118 72.25 168.768 72.46 168.313 73.3L157.603 93.95C157.148 94.79 157.288 95 158.233 95H158.618C159.563 95 159.913 94.79 160.368 93.95L171.078 73.3C171.533 72.46 171.393 72.25 170.448 72.25H170.063ZM162.888 77.64C162.888 73.825 161.138 71.935 157.638 71.935C154.103 71.935 152.353 73.825 152.353 77.64C152.353 81.42 154.103 83.31 157.638 83.31C161.138 83.31 162.888 81.42 162.888 77.64ZM157.638 74.105C159.738 74.105 160.578 75.12 160.578 77.64C160.578 80.16 159.738 81.14 157.638 81.14C155.503 81.14 154.698 80.16 154.698 77.64C154.698 75.12 155.503 74.105 157.638 74.105ZM176.293 89.61C176.293 85.83 174.543 83.94 171.008 83.94C167.508 83.94 165.758 85.83 165.758 89.61C165.758 93.425 167.508 95.315 171.008 95.315C174.543 95.315 176.293 93.425 176.293 89.61ZM171.008 93.145C168.908 93.145 168.103 92.13 168.103 89.61C168.103 87.09 168.908 86.11 171.008 86.11C173.108 86.11 173.948 87.09 173.948 89.61C173.948 92.13 173.143 93.145 171.008 93.145Z" fill="white"/>
<g clip-path="url(#clip0_105_96)" filter="url(#filter2_d_105_96)">
<path d="M237.35 224H244.67V238.908H237.35C227.696 238.524 227.599 224.404 237.35 224ZM237.35 254.453H244.67V239.545H237.35C227.599 239.949 227.696 254.069 237.35 254.453H237.35ZM252.617 224H245.297V238.908H252.617C262.401 238.375 262.279 224.304 252.617 224ZM244.67 262.545V255.091H237.35C231.376 255.091 227.599 262.222 231.753 267.344C235.714 272.421 244.67 269.89 244.67 262.545H244.67ZM259.952 246.999C259.952 241.271 253.82 237.671 248.941 240.535C244.062 243.4 244.062 250.599 248.941 253.463C253.82 256.327 259.952 252.728 259.952 246.999Z" fill="white"/>
</g>
<defs>
<filter id="filter0_b_105_96" x="-103" y="-103" width="497" height="497" filterUnits="userSpaceOnUse" color-interpolation-filters="sRGB">
<feFlood flood-opacity="0" result="BackgroundImageFix"/>
<feGaussianBlur in="BackgroundImage" stdDeviation="51.5"/>
<feComposite in2="SourceAlpha" operator="in" result="effect1_backgroundBlur_105_96"/>
<feBlend mode="normal" in="SourceGraphic" in2="effect1_backgroundBlur_105_96" result="shape"/>
</filter>
<filter id="filter1_d_105_96" x="75" y="16.1978" width="140" height="139.802" filterUnits="userSpaceOnUse" color-interpolation-filters="sRGB">
<feFlood flood-opacity="0" result="BackgroundImageFix"/>
<feColorMatrix in="SourceAlpha" type="matrix" values="0 0 0 0 0 0 0 0 0 0 0 0 0 0 0 0 0 0 127 0" result="hardAlpha"/>
<feMorphology radius="2" operator="dilate" in="SourceAlpha" result="effect1_dropShadow_105_96"/>
<feOffset/>
<feGaussianBlur stdDeviation="5"/>
<feComposite in2="hardAlpha" operator="out"/>
<feColorMatrix type="matrix" values="0 0 0 0 0 0 0 0 0 0 0 0 0 0 0 0 0 0 0.25 0"/>
<feBlend mode="normal" in2="BackgroundImageFix" result="effect1_dropShadow_105_96"/>
<feBlend mode="normal" in="SourceGraphic" in2="effect1_dropShadow_105_96" result="shape"/>
</filter>
<filter id="filter2_d_105_96" x="218" y="212" width="54" height="70" filterUnits="userSpaceOnUse" color-interpolation-filters="sRGB">
<feFlood flood-opacity="0" result="BackgroundImageFix"/>
<feColorMatrix in="SourceAlpha" type="matrix" values="0 0 0 0 0 0 0 0 0 0 0 0 0 0 0 0 0 0 127 0" result="hardAlpha"/>
<feOffset/>
<feGaussianBlur stdDeviation="6"/>
<feColorMatrix type="matrix" values="0 0 0 0 0 0 0 0 0 0 0 0 0 0 0 0 0 0 0.31 0"/>
<feBlend mode="normal" in2="BackgroundImageFix" result="effect1_dropShadow_105_96"/>
<feBlend mode="normal" in="SourceGraphic" in2="effect1_dropShadow_105_96" result="shape"/>
</filter>
<linearGradient id="paint0_linear_105_96" x1="-7.64209e-06" y1="6.54365" x2="233.86" y2="320.139" gradientUnits="userSpaceOnUse">
<stop stop-color="#1E005E"/>
<stop offset="1" stop-color="#FF0000"/>
</linearGradient>
<radialGradient id="paint1_radial_105_96" cx="0" cy="0" r="1" gradientUnits="userSpaceOnUse" gradientTransform="translate(145.5 145.5) rotate(90) scale(145.5)">
<stop stop-color="white"/>
<stop offset="1" stop-color="white" stop-opacity="0"/>
</radialGradient>
<radialGradient id="paint2_radial_105_96" cx="0" cy="0" r="1" gradientUnits="userSpaceOnUse" gradientTransform="translate(145.5 145.5) rotate(90) scale(145.5)">
<stop stop-color="#E64467"/>
<stop offset="1" stop-opacity="0"/>
</radialGradient>
<radialGradient id="paint3_radial_105_96" cx="0" cy="0" r="1" gradientUnits="userSpaceOnUse" gradientTransform="translate(145.5 145.5) rotate(90) scale(145.5)">
<stop stop-color="#151515"/>
<stop offset="1" stop-color="#151515" stop-opacity="0"/>
</radialGradient>
<linearGradient id="paint4_linear_105_96" x1="145" y1="28" x2="144.134" y2="152.657" gradientUnits="userSpaceOnUse">
<stop offset="0.0348612" stop-color="#DF8E26"/>
<stop offset="0.44466" stop-color="#80A572"/>
<stop offset="1" stop-color="#22BCBC"/>
</linearGradient>
<clipPath id="clip0_105_96">
<rect width="30" height="46" fill="white" transform="translate(230 224)"/>
</clipPath>
</defs>
</svg>
