<svg width="291" height="291" viewBox="0 0 291 291" fill="none" xmlns="http://www.w3.org/2000/svg">
<g filter="url(#filter0_b_105_136)">
<rect width="291" height="291" rx="31" fill="url(#paint0_linear_105_136)" fill-opacity="0.7"/>
<rect x="1.75" y="1.75" width="287.5" height="287.5" rx="29.25" stroke="url(#paint1_radial_105_136)" stroke-width="3.5"/>
<rect x="1.75" y="1.75" width="287.5" height="287.5" rx="29.25" stroke="url(#paint2_radial_105_136)" stroke-opacity="0.2" stroke-width="3.5"/>
<rect x="1.75" y="1.75" width="287.5" height="287.5" rx="29.25" stroke="url(#paint3_radial_105_136)" stroke-opacity="0.2" stroke-width="3.5"/>
</g>
<path d="M66.0613 207H68.3363V189.575H66.0613V197.225H57.1863V189.575H54.9113V207H57.1863V199.1H66.0613V207ZM71.4965 191.425H76.2715V207H78.5465V191.425H83.2965V189.575H71.4965V191.425ZM86.4719 207H88.7469V194.075L94.5219 207H96.1219L101.872 194.1V207H104.147V189.7H101.722L95.3219 204L88.9219 189.7H86.4719V207ZM108.38 189.575V207H116.755V205.15H110.655V189.575H108.38ZM125.736 200.1C125.736 204.35 128.561 207.225 132.211 207.225C134.736 207.225 136.511 205.925 137.336 204.45V207H139.636V193.3H137.336V195.8C136.536 194.375 134.786 193.075 132.236 193.075C128.561 193.075 125.736 195.825 125.736 200.1ZM137.336 200.125C137.336 203.35 135.186 205.225 132.686 205.225C130.186 205.225 128.061 203.325 128.061 200.1C128.061 196.875 130.186 195.05 132.686 195.05C135.186 195.05 137.336 196.95 137.336 200.125ZM153.881 207H156.131V198.925C156.131 195 153.706 193.05 150.531 193.05C148.681 193.05 147.031 193.825 146.131 195.25V193.3H143.856V207H146.131V199.425C146.131 196.475 147.731 195.025 150.056 195.025C152.356 195.025 153.881 196.45 153.881 199.25V207ZM159.372 200.1C159.372 204.35 162.197 207.225 165.872 207.225C168.372 207.225 170.147 205.95 170.972 204.425V207H173.272V188.5H170.972V195.75C170.022 194.175 168.047 193.075 165.897 193.075C162.197 193.075 159.372 195.825 159.372 200.1ZM170.972 200.125C170.972 203.35 168.822 205.225 166.322 205.225C163.822 205.225 161.697 203.325 161.697 200.1C161.697 196.875 163.822 195.05 166.322 195.05C168.822 195.05 170.972 196.95 170.972 200.125ZM183.681 198.275C183.681 203.5 187.506 207.15 192.381 207.15C196.156 207.15 199.156 205.275 200.456 201.925H197.731C196.781 204 194.931 205.175 192.381 205.175C188.731 205.175 186.006 202.525 186.006 198.275C186.006 194 188.731 191.35 192.381 191.35C194.931 191.35 196.781 192.525 197.731 194.625H200.456C199.156 191.25 196.156 189.35 192.381 189.35C187.506 189.35 183.681 193.05 183.681 198.275ZM215.543 202.25C215.543 195.8 206.143 198.6 206.143 194.1C206.143 192.225 207.618 191.25 209.493 191.3C211.618 191.325 212.718 192.65 212.868 193.825H215.368C215.093 191.175 212.918 189.35 209.593 189.35C206.143 189.35 203.818 191.3 203.818 194.175C203.818 200.65 213.243 197.65 213.243 202.35C213.243 204 211.943 205.25 209.743 205.25C207.318 205.25 206.293 203.8 206.143 202.35H203.718C203.768 205.225 206.243 207.175 209.743 207.175C213.518 207.175 215.543 204.725 215.543 202.25ZM230.591 202.25C230.591 195.8 221.191 198.6 221.191 194.1C221.191 192.225 222.666 191.25 224.541 191.3C226.666 191.325 227.766 192.65 227.916 193.825H230.416C230.141 191.175 227.966 189.35 224.641 189.35C221.191 189.35 218.866 191.3 218.866 194.175C218.866 200.65 228.291 197.65 228.291 202.35C228.291 204 226.991 205.25 224.791 205.25C222.366 205.25 221.341 203.8 221.191 202.35H218.766C218.816 205.225 221.291 207.175 224.791 207.175C228.566 207.175 230.591 204.725 230.591 202.25Z" fill="white"/>
<path d="M203 86C203 118.033 177.033 144 145 144C112.967 144 87 118.033 87 86C87 53.9675 112.967 28 145 28C177.033 28 203 53.9675 203 86ZM96.987 86C96.987 112.517 118.483 134.013 145 134.013C171.517 134.013 193.013 112.517 193.013 86C193.013 59.4832 171.517 37.987 145 37.987C118.483 37.987 96.987 59.4832 96.987 86Z" fill="white"/>
<g filter="url(#filter1_d_105_136)">
<mask id="path-5-inside-1_105_136" fill="white">
<path d="M145 32.9935C145 30.2357 147.24 27.9777 149.987 28.2148C158.936 28.9871 167.608 31.83 175.305 36.5469C184.425 42.1358 191.822 50.1379 196.678 59.6686C201.534 69.1992 203.66 79.8871 202.821 90.5506C201.982 101.214 198.21 111.438 191.923 120.092C185.636 128.745 177.078 135.492 167.196 139.585C157.313 143.678 146.492 144.959 135.927 143.286C125.362 141.613 115.466 137.05 107.332 130.104C100.467 124.241 95.0841 116.872 91.5842 108.6C90.5096 106.06 91.965 103.232 94.5878 102.38V102.38C97.2107 101.528 100.004 102.977 101.124 105.497C104.025 112.025 108.355 117.843 113.818 122.509C120.551 128.26 128.743 132.037 137.489 133.422C146.235 134.807 155.193 133.747 163.374 130.358C171.554 126.97 178.639 121.385 183.843 114.221C189.048 107.058 192.17 98.5944 192.865 89.7671C193.56 80.9397 191.8 72.0921 187.78 64.2026C183.76 56.313 177.637 49.6888 170.087 45.0622C163.961 41.3081 157.089 38.988 149.985 38.2465C147.242 37.9601 145 35.7514 145 32.9935V32.9935Z"/>
</mask>
<path d="M145 32.9935C145 30.2357 147.24 27.9777 149.987 28.2148C158.936 28.9871 167.608 31.83 175.305 36.5469C184.425 42.1358 191.822 50.1379 196.678 59.6686C201.534 69.1992 203.66 79.8871 202.821 90.5506C201.982 101.214 198.21 111.438 191.923 120.092C185.636 128.745 177.078 135.492 167.196 139.585C157.313 143.678 146.492 144.959 135.927 143.286C125.362 141.613 115.466 137.05 107.332 130.104C100.467 124.241 95.0841 116.872 91.5842 108.6C90.5096 106.06 91.965 103.232 94.5878 102.38V102.38C97.2107 101.528 100.004 102.977 101.124 105.497C104.025 112.025 108.355 117.843 113.818 122.509C120.551 128.26 128.743 132.037 137.489 133.422C146.235 134.807 155.193 133.747 163.374 130.358C171.554 126.97 178.639 121.385 183.843 114.221C189.048 107.058 192.17 98.5944 192.865 89.7671C193.56 80.9397 191.8 72.0921 187.78 64.2026C183.76 56.313 177.637 49.6888 170.087 45.0622C163.961 41.3081 157.089 38.988 149.985 38.2465C147.242 37.9601 145 35.7514 145 32.9935V32.9935Z" stroke="url(#paint4_linear_105_136)" stroke-width="20" stroke-linecap="round" stroke-linejoin="round" shape-rendering="crispEdges" mask="url(#path-5-inside-1_105_136)"/>
</g>
<path d="M118.407 95C119.422 95 119.807 94.755 120.332 93.81L126.527 81.175C127.717 78.795 128.312 77.01 128.312 75.785C128.312 73.44 126.772 72.25 123.657 72.25H115.187C114.312 72.25 114.102 72.46 114.102 73.335V73.72C114.102 74.595 114.312 74.805 115.187 74.805H123.482C125.022 74.805 125.582 75.155 125.582 76.135C125.582 76.695 125.372 77.43 124.952 78.305L117.252 93.81C116.797 94.755 116.902 95 117.987 95H118.407ZM145.718 86.705C145.718 91.15 144.283 92.795 140.398 92.795C136.618 92.795 135.113 91.08 135.113 86.705V80.65C135.113 76.275 136.618 74.49 140.398 74.49C144.283 74.49 145.718 76.275 145.718 80.65V86.705ZM140.398 95.35C146.243 95.35 148.483 92.585 148.483 86.705V80.65C148.483 74.735 146.243 71.97 140.398 71.97C134.623 71.97 132.313 74.77 132.313 80.65V86.705C132.313 92.55 134.658 95.35 140.398 95.35ZM170.097 72.25C169.152 72.25 168.802 72.46 168.347 73.3L157.637 93.95C157.182 94.79 157.322 95 158.267 95H158.652C159.597 95 159.947 94.79 160.402 93.95L171.112 73.3C171.567 72.46 171.427 72.25 170.482 72.25H170.097ZM162.922 77.64C162.922 73.825 161.172 71.935 157.672 71.935C154.137 71.935 152.387 73.825 152.387 77.64C152.387 81.42 154.137 83.31 157.672 83.31C161.172 83.31 162.922 81.42 162.922 77.64ZM157.672 74.105C159.772 74.105 160.612 75.12 160.612 77.64C160.612 80.16 159.772 81.14 157.672 81.14C155.537 81.14 154.732 80.16 154.732 77.64C154.732 75.12 155.537 74.105 157.672 74.105ZM176.327 89.61C176.327 85.83 174.577 83.94 171.042 83.94C167.542 83.94 165.792 85.83 165.792 89.61C165.792 93.425 167.542 95.315 171.042 95.315C174.577 95.315 176.327 93.425 176.327 89.61ZM171.042 93.145C168.942 93.145 168.137 92.13 168.137 89.61C168.137 87.09 168.942 86.11 171.042 86.11C173.142 86.11 173.982 87.09 173.982 89.61C173.982 92.13 173.177 93.145 171.042 93.145Z" fill="white"/>
<g filter="url(#filter2_d_105_136)">
<path d="M197.313 226H199.297V227.96H201.112V226H203.096V231.933H201.112V229.947H199.297V231.933H197.315V226H197.313Z" fill="white"/>
<path d="M205.703 227.967H203.957V226H209.433V227.967H207.686V231.933H205.703V227.967Z" fill="white"/>
<path d="M210.302 226H212.37L213.643 228.084L214.913 226H216.981V231.933H215.007V228.992L213.643 231.102H213.608L212.242 228.994V231.933H210.302V226V226Z" fill="white"/>
<path d="M217.968 226H219.953V229.973H222.74V231.934H217.968V226V226Z" fill="white"/>
<path fill-rule="evenodd" clip-rule="evenodd" d="M197.251 266.465L193.5 234.648H226.5L222.747 266.462L209.982 270L197.251 266.465ZM204.835 249.049L204.48 245.052H219.412L219.761 241.151H200.217L201.27 252.952H214.794L214.341 258.012L209.989 259.189H209.985L205.64 258.016L205.362 254.904H201.442L201.988 261.031L209.982 263.25L217.988 261.031L218.963 250.097L219.059 249.051H204.835V249.049Z" fill="white"/>
</g>
<g filter="url(#filter3_d_105_136)">
<path d="M245.754 226H250.48V227.976H247.73V229.953H250.48V231.929H245.754V226Z" fill="white"/>
<path d="M251.424 226H256.152V227.72H253.402V228.062H256.152V232.015H251.424V230.211H254.174V229.866H251.424V226Z" fill="white"/>
<path d="M257.098 226H261.823V227.72H259.073V228.062H261.823V232.015H257.098V230.211H259.848V229.866H257.098V226Z" fill="white"/>
<path fill-rule="evenodd" clip-rule="evenodd" d="M253.984 270L241.253 266.465L237.5 234.648H270.5L266.749 266.462L253.984 270ZM244.92 249.051L245.27 252.952H258.794L258.341 258.012L253.989 259.189H253.985L249.64 258.016L249.362 254.904H245.444L245.99 261.031L253.984 263.25L261.99 261.031L262.965 250.097L263.06 249.051L263.764 241.151H244.217L244.573 245.054H259.489L259.133 249.051H244.92V249.051Z" fill="white"/>
</g>
<defs>
<filter id="filter0_b_105_136" x="-103" y="-103" width="497" height="497" filterUnits="userSpaceOnUse" color-interpolation-filters="sRGB">
<feFlood flood-opacity="0" result="BackgroundImageFix"/>
<feGaussianBlur in="BackgroundImage" stdDeviation="51.5"/>
<feComposite in2="SourceAlpha" operator="in" result="effect1_backgroundBlur_105_136"/>
<feBlend mode="normal" in="SourceGraphic" in2="effect1_backgroundBlur_105_136" result="shape"/>
</filter>
<filter id="filter1_d_105_136" x="79.2275" y="16.1978" width="135.772" height="139.802" filterUnits="userSpaceOnUse" color-interpolation-filters="sRGB">
<feFlood flood-opacity="0" result="BackgroundImageFix"/>
<feColorMatrix in="SourceAlpha" type="matrix" values="0 0 0 0 0 0 0 0 0 0 0 0 0 0 0 0 0 0 127 0" result="hardAlpha"/>
<feMorphology radius="2" operator="dilate" in="SourceAlpha" result="effect1_dropShadow_105_136"/>
<feOffset/>
<feGaussianBlur stdDeviation="5"/>
<feComposite in2="hardAlpha" operator="out"/>
<feColorMatrix type="matrix" values="0 0 0 0 0 0 0 0 0 0 0 0 0 0 0 0 0 0 0.25 0"/>
<feBlend mode="normal" in2="BackgroundImageFix" result="effect1_dropShadow_105_136"/>
<feBlend mode="normal" in="SourceGraphic" in2="effect1_dropShadow_105_136" result="shape"/>
</filter>
<filter id="filter2_d_105_136" x="176" y="214" width="68" height="68" filterUnits="userSpaceOnUse" color-interpolation-filters="sRGB">
<feFlood flood-opacity="0" result="BackgroundImageFix"/>
<feColorMatrix in="SourceAlpha" type="matrix" values="0 0 0 0 0 0 0 0 0 0 0 0 0 0 0 0 0 0 127 0" result="hardAlpha"/>
<feOffset/>
<feGaussianBlur stdDeviation="6"/>
<feComposite in2="hardAlpha" operator="out"/>
<feColorMatrix type="matrix" values="0 0 0 0 0 0 0 0 0 0 0 0 0 0 0 0 0 0 0.3 0"/>
<feBlend mode="normal" in2="BackgroundImageFix" result="effect1_dropShadow_105_136"/>
<feBlend mode="normal" in="SourceGraphic" in2="effect1_dropShadow_105_136" result="shape"/>
</filter>
<filter id="filter3_d_105_136" x="220" y="214" width="68" height="68" filterUnits="userSpaceOnUse" color-interpolation-filters="sRGB">
<feFlood flood-opacity="0" result="BackgroundImageFix"/>
<feColorMatrix in="SourceAlpha" type="matrix" values="0 0 0 0 0 0 0 0 0 0 0 0 0 0 0 0 0 0 127 0" result="hardAlpha"/>
<feOffset/>
<feGaussianBlur stdDeviation="6"/>
<feComposite in2="hardAlpha" operator="out"/>
<feColorMatrix type="matrix" values="0 0 0 0 0 0 0 0 0 0 0 0 0 0 0 0 0 0 0.3 0"/>
<feBlend mode="normal" in2="BackgroundImageFix" result="effect1_dropShadow_105_136"/>
<feBlend mode="normal" in="SourceGraphic" in2="effect1_dropShadow_105_136" result="shape"/>
</filter>
<linearGradient id="paint0_linear_105_136" x1="-7.64209e-06" y1="6.54365" x2="233.86" y2="320.139" gradientUnits="userSpaceOnUse">
<stop stop-color="#1E005E"/>
<stop offset="1" stop-color="#FF0000"/>
</linearGradient>
<radialGradient id="paint1_radial_105_136" cx="0" cy="0" r="1" gradientUnits="userSpaceOnUse" gradientTransform="translate(145.5 145.5) rotate(90) scale(145.5)">
<stop stop-color="white"/>
<stop offset="1" stop-color="white" stop-opacity="0"/>
</radialGradient>
<radialGradient id="paint2_radial_105_136" cx="0" cy="0" r="1" gradientUnits="userSpaceOnUse" gradientTransform="translate(145.5 145.5) rotate(90) scale(145.5)">
<stop stop-color="#E64467"/>
<stop offset="1" stop-opacity="0"/>
</radialGradient>
<radialGradient id="paint3_radial_105_136" cx="0" cy="0" r="1" gradientUnits="userSpaceOnUse" gradientTransform="translate(145.5 145.5) rotate(90) scale(145.5)">
<stop stop-color="#151515"/>
<stop offset="1" stop-color="#151515" stop-opacity="0"/>
</radialGradient>
<linearGradient id="paint4_linear_105_136" x1="145" y1="28" x2="144.134" y2="152.657" gradientUnits="userSpaceOnUse">
<stop offset="0.0348612" stop-color="#DF8E26"/>
<stop offset="0.44466" stop-color="#80A572"/>
<stop offset="1" stop-color="#22BCBC"/>
</linearGradient>
</defs>
</svg>
