<svg width="291" height="291" viewBox="0 0 291 291" fill="none" xmlns="http://www.w3.org/2000/svg">
<g filter="url(#filter0_b_105_116)">
<rect width="291" height="291" rx="31" fill="url(#paint0_linear_105_116)" fill-opacity="0.7"/>
<rect x="1.75" y="1.75" width="287.5" height="287.5" rx="29.25" stroke="url(#paint1_radial_105_116)" stroke-width="3.5"/>
<rect x="1.75" y="1.75" width="287.5" height="287.5" rx="29.25" stroke="url(#paint2_radial_105_116)" stroke-opacity="0.2" stroke-width="3.5"/>
<rect x="1.75" y="1.75" width="287.5" height="287.5" rx="29.25" stroke="url(#paint3_radial_105_116)" stroke-opacity="0.2" stroke-width="3.5"/>
</g>
<path d="M50.625 201H53.025L46.75 183.675H44.125L37.825 201H40.225L41.625 197.125H49.225L50.625 201ZM48.575 195.275H42.275L45.425 186.475L48.575 195.275ZM55.2957 194.1C55.2957 198.35 58.1207 201.225 61.7957 201.225C64.2957 201.225 66.0707 199.95 66.8957 198.425V201H69.1957V182.5H66.8957V189.75C65.9457 188.175 63.9707 187.075 61.8207 187.075C58.1207 187.075 55.2957 189.825 55.2957 194.1ZM66.8957 194.125C66.8957 197.35 64.7457 199.225 62.2457 199.225C59.7457 199.225 57.6207 197.325 57.6207 194.1C57.6207 190.875 59.7457 189.05 62.2457 189.05C64.7457 189.05 66.8957 190.95 66.8957 194.125ZM86.4152 194.125C86.4152 189.8 83.3902 187.075 79.4902 187.075C75.6152 187.075 72.5652 189.8 72.5652 194.125C72.5652 198.475 75.5152 201.225 79.3902 201.225C83.2902 201.225 86.4152 198.475 86.4152 194.125ZM74.8902 194.125C74.8902 190.675 77.0652 189.05 79.4652 189.05C81.8152 189.05 84.0902 190.675 84.0902 194.125C84.0902 197.6 81.7652 199.225 79.3902 199.225C77.0152 199.225 74.8902 197.6 74.8902 194.125ZM92.0564 189.85V182.5H89.7814V201H92.0564V198.475C92.9064 199.975 94.6814 201.225 97.1814 201.225C100.856 201.225 103.681 198.35 103.681 194.1C103.681 189.825 100.881 187.075 97.1814 187.075C94.7564 187.075 92.9314 188.325 92.0564 189.85ZM101.356 194.1C101.356 197.325 99.2314 199.225 96.7064 199.225C94.2314 199.225 92.0564 197.35 92.0564 194.125C92.0564 190.95 94.2314 189.05 96.7064 189.05C99.2314 189.05 101.356 190.875 101.356 194.1ZM112.876 189C115.226 189 117.226 190.475 117.201 193.15H108.551C108.801 190.475 110.651 189 112.876 189ZM119.276 196.775H116.826C116.326 198.25 115.026 199.3 112.976 199.3C110.651 199.3 108.701 197.775 108.526 195H119.476C119.526 194.525 119.551 194.125 119.551 193.625C119.551 189.875 116.951 187.075 112.976 187.075C108.976 187.075 106.201 189.8 106.201 194.125C106.201 198.475 109.076 201.225 112.976 201.225C116.376 201.225 118.576 199.275 119.276 196.775ZM129.969 201H132.244V183.575H129.969V201ZM146.521 201H148.771V192.925C148.771 189 146.346 187.05 143.171 187.05C141.321 187.05 139.671 187.825 138.771 189.25V187.3H136.496V201H138.771V193.425C138.771 190.475 140.371 189.025 142.696 189.025C144.996 189.025 146.521 190.45 146.521 193.25V201ZM152.013 194.1C152.013 198.35 154.838 201.225 158.513 201.225C161.013 201.225 162.788 199.95 163.613 198.425V201H165.913V182.5H163.613V189.75C162.663 188.175 160.688 187.075 158.538 187.075C154.838 187.075 152.013 189.825 152.013 194.1ZM163.613 194.125C163.613 197.35 161.463 199.225 158.963 199.225C156.463 199.225 154.338 197.325 154.338 194.1C154.338 190.875 156.463 189.05 158.963 189.05C161.463 189.05 163.613 190.95 163.613 194.125ZM175.957 189C178.307 189 180.307 190.475 180.282 193.15H171.632C171.882 190.475 173.732 189 175.957 189ZM182.357 196.775H179.907C179.407 198.25 178.107 199.3 176.057 199.3C173.732 199.3 171.782 197.775 171.607 195H182.557C182.607 194.525 182.632 194.125 182.632 193.625C182.632 189.875 180.032 187.075 176.057 187.075C172.057 187.075 169.282 189.8 169.282 194.125C169.282 198.475 172.157 201.225 176.057 201.225C179.457 201.225 181.657 199.275 182.357 196.775ZM195.86 197.275C195.76 192.375 187.81 194.15 187.81 190.9C187.81 189.8 188.81 189 190.485 189C192.31 189 193.36 190 193.46 191.375H195.735C195.585 188.7 193.585 187.075 190.56 187.075C187.51 187.075 185.535 188.8 185.535 190.9C185.535 196 193.635 194.225 193.635 197.275C193.635 198.4 192.635 199.3 190.835 199.3C188.91 199.3 187.735 198.3 187.61 196.975H185.26C185.41 199.475 187.66 201.225 190.86 201.225C193.885 201.225 195.86 199.525 195.86 197.275ZM199.446 201H201.721V187.3H199.446V201ZM200.621 185.075C201.446 185.075 202.121 184.4 202.121 183.525C202.121 182.65 201.446 181.975 200.621 181.975C199.746 181.975 199.071 182.65 199.071 183.525C199.071 184.4 199.746 185.075 200.621 185.075ZM205.124 194.1C205.124 198.35 207.949 201.225 211.624 201.225C214.124 201.225 215.899 199.9 216.724 198.425V201.3C216.724 204.225 214.899 205.775 212.474 205.775C210.224 205.775 208.599 204.65 208.099 203H205.849C206.299 205.925 208.874 207.75 212.474 207.75C216.499 207.75 219.024 205.075 219.024 201.3V187.3H216.724V189.8C215.924 188.325 214.124 187.075 211.624 187.075C207.949 187.075 205.124 189.825 205.124 194.1ZM216.724 194.125C216.724 197.35 214.574 199.225 212.074 199.225C209.574 199.225 207.449 197.325 207.449 194.1C207.449 190.875 209.574 189.05 212.074 189.05C214.574 189.05 216.724 190.95 216.724 194.125ZM233.268 201H235.518V192.925C235.518 189 233.093 187.05 229.918 187.05C228.068 187.05 226.418 187.825 225.518 189.25V187.3H223.243V201H225.518V193.425C225.518 190.475 227.118 189.025 229.443 189.025C231.743 189.025 233.268 190.45 233.268 193.25V201Z" fill="white"/>
<path d="M203 86C203 118.033 177.033 144 145 144C112.967 144 87 118.033 87 86C87 53.9675 112.967 28 145 28C177.033 28 203 53.9675 203 86ZM96.987 86C96.987 112.517 118.483 134.013 145 134.013C171.517 134.013 193.013 112.517 193.013 86C193.013 59.4832 171.517 37.987 145 37.987C118.483 37.987 96.987 59.4832 96.987 86Z" fill="white"/>
<g filter="url(#filter1_d_105_116)">
<mask id="path-5-inside-1_105_116" fill="white">
<path d="M145 32.9935C145 30.2357 147.24 27.9777 149.988 28.2148C161.231 29.1851 171.988 33.4201 180.907 40.4516C191.138 48.5171 198.356 59.7922 201.397 72.4602C204.439 85.1281 203.127 98.4511 197.672 110.282C192.218 122.113 182.939 131.764 171.331 137.678C159.723 143.593 146.462 145.427 133.685 142.886C120.907 140.344 109.357 133.574 100.896 123.668C92.4355 113.761 87.5562 101.295 87.0447 88.2771C86.5988 76.9281 89.4953 65.7364 95.3192 56.0697C96.7424 53.7074 99.8857 53.2225 102.117 54.8436V54.8436C104.348 56.4646 104.817 59.5764 103.437 61.9638C98.9081 69.7944 96.6663 78.7786 97.024 87.885C97.4474 98.6613 101.487 108.981 108.491 117.182C115.495 125.383 125.056 130.986 135.633 133.09C146.211 135.194 157.188 133.676 166.797 128.78C176.407 123.884 184.088 115.895 188.603 106.101C193.118 96.3071 194.204 85.2782 191.686 74.7916C189.169 64.305 183.194 54.9713 174.725 48.2946C167.568 42.6525 158.982 39.1854 149.985 38.2464C147.242 37.9601 145 35.7514 145 32.9935V32.9935Z"/>
</mask>
<path d="M145 32.9935C145 30.2357 147.24 27.9777 149.988 28.2148C161.231 29.1851 171.988 33.4201 180.907 40.4516C191.138 48.5171 198.356 59.7922 201.397 72.4602C204.439 85.1281 203.127 98.4511 197.672 110.282C192.218 122.113 182.939 131.764 171.331 137.678C159.723 143.593 146.462 145.427 133.685 142.886C120.907 140.344 109.357 133.574 100.896 123.668C92.4355 113.761 87.5562 101.295 87.0447 88.2771C86.5988 76.9281 89.4953 65.7364 95.3192 56.0697C96.7424 53.7074 99.8857 53.2225 102.117 54.8436V54.8436C104.348 56.4646 104.817 59.5764 103.437 61.9638C98.9081 69.7944 96.6663 78.7786 97.024 87.885C97.4474 98.6613 101.487 108.981 108.491 117.182C115.495 125.383 125.056 130.986 135.633 133.09C146.211 135.194 157.188 133.676 166.797 128.78C176.407 123.884 184.088 115.895 188.603 106.101C193.118 96.3071 194.204 85.2782 191.686 74.7916C189.169 64.305 183.194 54.9713 174.725 48.2946C167.568 42.6525 158.982 39.1854 149.985 38.2464C147.242 37.9601 145 35.7514 145 32.9935V32.9935Z" stroke="url(#paint4_linear_105_116)" stroke-width="20" stroke-linecap="round" stroke-linejoin="round" shape-rendering="crispEdges" mask="url(#path-5-inside-1_105_116)"/>
</g>
<path d="M122.436 71.935C117.571 71.935 115.121 74 115.121 78.165C115.121 80.79 115.926 82.19 118.201 83.17C115.576 84.15 114.491 85.76 114.491 88.735C114.491 93.145 117.116 95.35 122.401 95.35C127.686 95.35 130.346 93.145 130.346 88.7C130.346 85.76 129.296 84.15 126.776 83.17C129.016 82.19 129.751 80.79 129.751 78.165C129.751 74.07 127.581 71.935 122.436 71.935ZM117.256 88.56C117.256 85.725 118.796 84.395 122.436 84.395C126.076 84.395 127.616 85.725 127.616 88.56C127.616 91.5 126.216 92.795 122.436 92.795C118.656 92.795 117.256 91.5 117.256 88.56ZM117.816 78.34C117.816 75.645 118.866 74.49 122.401 74.49C126.006 74.49 127.056 75.68 127.056 78.34C127.056 81.035 125.761 82.155 122.436 82.155C119.111 82.155 117.816 81.105 117.816 78.34ZM134.786 80.44C134.786 83.1 135.941 84.255 138.601 84.255H140.246C142.381 84.255 143.921 84.535 144.796 85.13C145.671 85.725 146.126 86.845 146.126 88.525C146.126 91.43 144.691 92.76 140.806 92.76C138.811 92.76 137.061 92.515 135.591 92.025C134.751 91.745 134.506 91.955 134.506 92.9V93.46C134.506 94.16 134.751 94.44 135.556 94.685C137.026 95.105 138.776 95.315 140.806 95.315C146.231 95.315 148.856 93.11 148.856 88.49C148.856 83.835 146.336 81.7 140.736 81.7H139.161C138.006 81.7 137.516 81.175 137.516 80.02V76.45C137.516 75.295 138.006 74.805 139.161 74.805H146.546C147.421 74.805 147.631 74.595 147.631 73.72V73.335C147.631 72.46 147.421 72.25 146.546 72.25H138.601C135.941 72.25 134.786 73.405 134.786 76.03V80.44ZM170.268 72.25C169.323 72.25 168.973 72.46 168.518 73.3L157.808 93.95C157.353 94.79 157.493 95 158.438 95H158.823C159.768 95 160.118 94.79 160.573 93.95L171.283 73.3C171.738 72.46 171.598 72.25 170.653 72.25H170.268ZM163.093 77.64C163.093 73.825 161.343 71.935 157.843 71.935C154.308 71.935 152.558 73.825 152.558 77.64C152.558 81.42 154.308 83.31 157.843 83.31C161.343 83.31 163.093 81.42 163.093 77.64ZM157.843 74.105C159.943 74.105 160.783 75.12 160.783 77.64C160.783 80.16 159.943 81.14 157.843 81.14C155.708 81.14 154.903 80.16 154.903 77.64C154.903 75.12 155.708 74.105 157.843 74.105ZM176.498 89.61C176.498 85.83 174.748 83.94 171.213 83.94C167.713 83.94 165.963 85.83 165.963 89.61C165.963 93.425 167.713 95.315 171.213 95.315C174.748 95.315 176.498 93.425 176.498 89.61ZM171.213 93.145C169.113 93.145 168.308 92.13 168.308 89.61C168.308 87.09 169.113 86.11 171.213 86.11C173.313 86.11 174.153 87.09 174.153 89.61C174.153 92.13 173.348 93.145 171.213 93.145Z" fill="white"/>
<g filter="url(#filter2_d_105_116)">
<path d="M221.323 224.587C216.721 224.587 213 228.308 213 232.91V262.089C213 266.692 216.721 270.412 221.323 270.412H251.677C256.279 270.412 260 266.692 260 262.089V232.91C260 228.308 256.279 224.587 251.677 224.587H221.323ZM243.472 234.634H247.447C247.545 234.614 247.623 234.692 247.643 234.771V253.453C247.643 253.806 247.662 254.197 247.682 254.628C247.721 255.039 247.741 255.431 247.76 255.764C247.76 255.901 247.702 256.019 247.565 256.077C246.546 256.508 245.469 256.822 244.373 257.017C243.393 257.194 242.375 257.292 241.357 257.292C239.907 257.311 238.458 257.017 237.146 256.41C235.913 255.842 234.894 254.902 234.189 253.747C233.465 252.552 233.112 251.064 233.112 249.282C233.093 247.833 233.465 246.403 234.189 245.15C234.933 243.877 236.01 242.819 237.303 242.114C238.674 241.351 240.319 240.979 242.257 240.979C242.355 240.979 242.492 240.979 242.669 240.998C242.845 241.018 243.041 241.018 243.276 241.037V234.849C243.276 234.712 243.335 234.634 243.472 234.634ZM225.984 236.318H229.803C229.92 236.298 230.038 236.377 230.057 236.514C230.077 236.533 230.077 236.553 230.077 236.572V256.665C230.077 256.88 229.979 256.978 229.803 256.978H225.964C225.788 256.978 225.71 256.88 225.71 256.665V236.572C225.71 236.396 225.808 236.318 225.984 236.318V236.318ZM242.101 244.621C241.337 244.621 240.573 244.778 239.888 245.13C239.222 245.463 238.654 245.953 238.223 246.579C237.793 247.206 237.577 248.048 237.577 249.067C237.558 249.752 237.675 250.437 237.91 251.084C238.106 251.612 238.4 252.082 238.791 252.474C239.163 252.827 239.614 253.101 240.123 253.257C240.652 253.434 241.2 253.512 241.748 253.512C242.042 253.512 242.316 253.492 242.571 253.473C242.825 253.492 243.06 253.453 243.276 253.375V244.758C242.891 244.666 242.497 244.62 242.101 244.621V244.621Z" fill="white"/>
</g>
<defs>
<filter id="filter0_b_105_116" x="-103" y="-103" width="497" height="497" filterUnits="userSpaceOnUse" color-interpolation-filters="sRGB">
<feFlood flood-opacity="0" result="BackgroundImageFix"/>
<feGaussianBlur in="BackgroundImage" stdDeviation="51.5"/>
<feComposite in2="SourceAlpha" operator="in" result="effect1_backgroundBlur_105_116"/>
<feBlend mode="normal" in="SourceGraphic" in2="effect1_backgroundBlur_105_116" result="shape"/>
</filter>
<filter id="filter1_d_105_116" x="75" y="16.1978" width="140" height="139.802" filterUnits="userSpaceOnUse" color-interpolation-filters="sRGB">
<feFlood flood-opacity="0" result="BackgroundImageFix"/>
<feColorMatrix in="SourceAlpha" type="matrix" values="0 0 0 0 0 0 0 0 0 0 0 0 0 0 0 0 0 0 127 0" result="hardAlpha"/>
<feMorphology radius="2" operator="dilate" in="SourceAlpha" result="effect1_dropShadow_105_116"/>
<feOffset/>
<feGaussianBlur stdDeviation="5"/>
<feComposite in2="hardAlpha" operator="out"/>
<feColorMatrix type="matrix" values="0 0 0 0 0 0 0 0 0 0 0 0 0 0 0 0 0 0 0.25 0"/>
<feBlend mode="normal" in2="BackgroundImageFix" result="effect1_dropShadow_105_116"/>
<feBlend mode="normal" in="SourceGraphic" in2="effect1_dropShadow_105_116" result="shape"/>
</filter>
<filter id="filter2_d_105_116" x="201" y="212" width="71" height="71" filterUnits="userSpaceOnUse" color-interpolation-filters="sRGB">
<feFlood flood-opacity="0" result="BackgroundImageFix"/>
<feColorMatrix in="SourceAlpha" type="matrix" values="0 0 0 0 0 0 0 0 0 0 0 0 0 0 0 0 0 0 127 0" result="hardAlpha"/>
<feOffset/>
<feGaussianBlur stdDeviation="6"/>
<feColorMatrix type="matrix" values="0 0 0 0 0 0 0 0 0 0 0 0 0 0 0 0 0 0 0.31 0"/>
<feBlend mode="normal" in2="BackgroundImageFix" result="effect1_dropShadow_105_116"/>
<feBlend mode="normal" in="SourceGraphic" in2="effect1_dropShadow_105_116" result="shape"/>
</filter>
<linearGradient id="paint0_linear_105_116" x1="-7.64209e-06" y1="6.54365" x2="233.86" y2="320.139" gradientUnits="userSpaceOnUse">
<stop stop-color="#1E005E"/>
<stop offset="1" stop-color="#FF0000"/>
</linearGradient>
<radialGradient id="paint1_radial_105_116" cx="0" cy="0" r="1" gradientUnits="userSpaceOnUse" gradientTransform="translate(145.5 145.5) rotate(90) scale(145.5)">
<stop stop-color="white"/>
<stop offset="1" stop-color="white" stop-opacity="0"/>
</radialGradient>
<radialGradient id="paint2_radial_105_116" cx="0" cy="0" r="1" gradientUnits="userSpaceOnUse" gradientTransform="translate(145.5 145.5) rotate(90) scale(145.5)">
<stop stop-color="#E64467"/>
<stop offset="1" stop-opacity="0"/>
</radialGradient>
<radialGradient id="paint3_radial_105_116" cx="0" cy="0" r="1" gradientUnits="userSpaceOnUse" gradientTransform="translate(145.5 145.5) rotate(90) scale(145.5)">
<stop stop-color="#151515"/>
<stop offset="1" stop-color="#151515" stop-opacity="0"/>
</radialGradient>
<linearGradient id="paint4_linear_105_116" x1="145" y1="28" x2="144.134" y2="152.657" gradientUnits="userSpaceOnUse">
<stop offset="0.0348612" stop-color="#DF8E26"/>
<stop offset="0.44466" stop-color="#80A572"/>
<stop offset="1" stop-color="#22BCBC"/>
</linearGradient>
</defs>
</svg>
