<svg width="291" height="291" viewBox="0 0 291 291" fill="none" xmlns="http://www.w3.org/2000/svg">
<g filter="url(#filter0_b_105_88)">
<rect width="291" height="291" rx="31" fill="url(#paint0_linear_105_88)" fill-opacity="0.7"/>
<rect x="1.75" y="1.75" width="287.5" height="287.5" rx="29.25" stroke="url(#paint1_radial_105_88)" stroke-width="3.5"/>
<rect x="1.75" y="1.75" width="287.5" height="287.5" rx="29.25" stroke="url(#paint2_radial_105_88)" stroke-opacity="0.2" stroke-width="3.5"/>
<rect x="1.75" y="1.75" width="287.5" height="287.5" rx="29.25" stroke="url(#paint3_radial_105_88)" stroke-opacity="0.2" stroke-width="3.5"/>
</g>
<path d="M56.3291 195H58.7291L52.4541 177.675H49.8291L43.5291 195H45.9291L47.3291 191.125H54.9291L56.3291 195ZM54.2791 189.275H47.9791L51.1291 180.475L54.2791 189.275ZM60.9998 188.1C60.9998 192.35 63.8248 195.225 67.4998 195.225C69.9998 195.225 71.7748 193.95 72.5998 192.425V195H74.8998V176.5H72.5998V183.75C71.6498 182.175 69.6748 181.075 67.5248 181.075C63.8248 181.075 60.9998 183.825 60.9998 188.1ZM72.5998 188.125C72.5998 191.35 70.4498 193.225 67.9498 193.225C65.4498 193.225 63.3248 191.325 63.3248 188.1C63.3248 184.875 65.4498 183.05 67.9498 183.05C70.4498 183.05 72.5998 184.95 72.5998 188.125ZM92.1193 188.125C92.1193 183.8 89.0943 181.075 85.1943 181.075C81.3193 181.075 78.2693 183.8 78.2693 188.125C78.2693 192.475 81.2193 195.225 85.0943 195.225C88.9943 195.225 92.1193 192.475 92.1193 188.125ZM80.5943 188.125C80.5943 184.675 82.7693 183.05 85.1693 183.05C87.5193 183.05 89.7943 184.675 89.7943 188.125C89.7943 191.6 87.4693 193.225 85.0943 193.225C82.7193 193.225 80.5943 191.6 80.5943 188.125ZM97.7605 183.85V176.5H95.4855V195H97.7605V192.475C98.6105 193.975 100.386 195.225 102.886 195.225C106.561 195.225 109.386 192.35 109.386 188.1C109.386 183.825 106.586 181.075 102.886 181.075C100.461 181.075 98.6355 182.325 97.7605 183.85ZM107.061 188.1C107.061 191.325 104.936 193.225 102.411 193.225C99.9355 193.225 97.7605 191.35 97.7605 188.125C97.7605 184.95 99.9355 183.05 102.411 183.05C104.936 183.05 107.061 184.875 107.061 188.1ZM118.58 183C120.93 183 122.93 184.475 122.905 187.15H114.255C114.505 184.475 116.355 183 118.58 183ZM124.98 190.775H122.53C122.03 192.25 120.73 193.3 118.68 193.3C116.355 193.3 114.405 191.775 114.23 189H125.18C125.23 188.525 125.255 188.125 125.255 187.625C125.255 183.875 122.655 181.075 118.68 181.075C114.68 181.075 111.905 183.8 111.905 188.125C111.905 192.475 114.78 195.225 118.68 195.225C122.08 195.225 124.28 193.275 124.98 190.775ZM137.948 185.85V179.45H141.298C143.898 179.45 144.998 180.65 144.998 182.675C144.998 184.625 143.898 185.85 141.298 185.85H137.948ZM147.323 182.675C147.323 179.825 145.398 177.575 141.298 177.575H135.673V195H137.948V187.725H141.298C145.623 187.725 147.323 185.325 147.323 182.675ZM152.801 187.55C152.801 184.375 154.451 183.4 156.626 183.4H157.226V181.05C155.051 181.05 153.576 182 152.801 183.525V181.3H150.526V195H152.801V187.55ZM166.052 183C168.402 183 170.402 184.475 170.377 187.15H161.727C161.977 184.475 163.827 183 166.052 183ZM172.452 190.775H170.002C169.502 192.25 168.202 193.3 166.152 193.3C163.827 193.3 161.877 191.775 161.702 189H172.652C172.702 188.525 172.727 188.125 172.727 187.625C172.727 183.875 170.127 181.075 166.152 181.075C162.152 181.075 159.377 183.8 159.377 188.125C159.377 192.475 162.252 195.225 166.152 195.225C169.552 195.225 171.752 193.275 172.452 190.775ZM195.88 195H198.13V186.925C198.13 183 195.705 181.05 192.58 181.05C190.48 181.05 188.53 182.125 187.73 184.1C186.83 182.05 184.955 181.05 182.705 181.05C180.905 181.05 179.28 181.825 178.38 183.275V181.3H176.105V195H178.38V187.45C178.38 184.5 179.955 183.025 182.255 183.025C184.505 183.025 186.005 184.45 186.005 187.25V195H188.255V187.45C188.255 184.5 189.83 183.025 192.13 183.025C194.38 183.025 195.88 184.45 195.88 187.25V195ZM202.237 195H204.512V181.3H202.237V195ZM203.412 179.075C204.237 179.075 204.912 178.4 204.912 177.525C204.912 176.65 204.237 175.975 203.412 175.975C202.537 175.975 201.862 176.65 201.862 177.525C201.862 178.4 202.537 179.075 203.412 179.075ZM214.589 183C216.939 183 218.939 184.475 218.914 187.15H210.264C210.514 184.475 212.364 183 214.589 183ZM220.989 190.775H218.539C218.039 192.25 216.739 193.3 214.689 193.3C212.364 193.3 210.414 191.775 210.239 189H221.189C221.239 188.525 221.264 188.125 221.264 187.625C221.264 183.875 218.664 181.075 214.689 181.075C210.689 181.075 207.914 183.8 207.914 188.125C207.914 192.475 210.789 195.225 214.689 195.225C218.089 195.225 220.289 193.275 220.989 190.775ZM226.917 187.55C226.917 184.375 228.567 183.4 230.742 183.4H231.342V181.05C229.167 181.05 227.692 182 226.917 183.525V181.3H224.642V195H226.917V187.55ZM240.168 183C242.518 183 244.518 184.475 244.493 187.15H235.843C236.093 184.475 237.943 183 240.168 183ZM246.568 190.775H244.118C243.618 192.25 242.318 193.3 240.268 193.3C237.943 193.3 235.993 191.775 235.818 189H246.768C246.818 188.525 246.843 188.125 246.843 187.625C246.843 183.875 244.243 181.075 240.268 181.075C236.268 181.075 233.493 183.8 233.493 188.125C233.493 192.475 236.368 195.225 240.268 195.225C243.668 195.225 245.868 193.275 246.568 190.775ZM128.219 221.825V219.3H125.944V239.5H128.219V230.475C129.069 231.875 130.844 233.225 133.344 233.225C137.019 233.225 139.844 230.35 139.844 226.1C139.844 221.825 137.019 219.075 133.344 219.075C130.844 219.075 129.044 220.375 128.219 221.825ZM137.519 226.1C137.519 229.325 135.394 231.225 132.869 231.225C130.394 231.225 128.219 229.35 128.219 226.125C128.219 222.95 130.394 221.05 132.869 221.05C135.394 221.05 137.519 222.875 137.519 226.1ZM145.489 225.55C145.489 222.375 147.139 221.4 149.314 221.4H149.914V219.05C147.739 219.05 146.264 220 145.489 221.525V219.3H143.214V233H145.489V225.55ZM165.915 226.125C165.915 221.8 162.89 219.075 158.99 219.075C155.115 219.075 152.065 221.8 152.065 226.125C152.065 230.475 155.015 233.225 158.89 233.225C162.79 233.225 165.915 230.475 165.915 226.125ZM154.39 226.125C154.39 222.675 156.565 221.05 158.965 221.05C161.315 221.05 163.59 222.675 163.59 226.125C163.59 229.6 161.265 231.225 158.89 231.225C156.515 231.225 154.39 229.6 154.39 226.125Z" fill="white"/>
<path d="M203 86C203 118.033 177.033 144 145 144C112.967 144 87 118.033 87 86C87 53.9675 112.967 28 145 28C177.033 28 203 53.9675 203 86ZM96.987 86C96.987 112.517 118.483 134.013 145 134.013C171.517 134.013 193.013 112.517 193.013 86C193.013 59.4832 171.517 37.987 145 37.987C118.483 37.987 96.987 59.4832 96.987 86Z" fill="white"/>
<g filter="url(#filter1_d_105_88)">
<mask id="path-5-inside-1_105_88" fill="white">
<path d="M145 32.9935C145 30.2357 147.24 27.9777 149.988 28.2148C162 29.2513 173.437 34.0125 182.668 41.8965C193.169 50.8653 200.126 63.2868 202.286 76.9268C204.446 90.5668 201.669 104.53 194.453 116.305C187.237 128.08 176.057 136.894 162.923 141.161C149.789 145.429 135.563 144.87 122.804 139.585C110.046 134.3 99.5912 124.636 93.3216 112.331C87.052 100.027 85.3787 85.8886 88.6025 72.4601C91.4364 60.6562 97.8909 50.0815 107 42.1824C109.083 40.3755 112.223 40.8857 113.844 43.1168V43.1168C115.465 45.348 114.949 48.4526 112.898 50.2965C105.698 56.7703 100.592 65.3009 98.3136 74.7916C95.6449 85.9077 97.0301 97.6114 102.22 107.797C107.41 117.983 116.064 125.983 126.626 130.358C137.188 134.733 148.964 135.196 159.837 131.663C170.709 128.13 179.965 120.834 185.938 111.087C191.911 101.339 194.21 89.7804 192.422 78.4891C190.633 67.1978 184.875 56.9152 176.182 49.4907C168.76 43.1518 159.615 39.2515 149.985 38.2464C147.242 37.9601 145 35.7514 145 32.9935V32.9935Z"/>
</mask>
<path d="M145 32.9935C145 30.2357 147.24 27.9777 149.988 28.2148C162 29.2513 173.437 34.0125 182.668 41.8965C193.169 50.8653 200.126 63.2868 202.286 76.9268C204.446 90.5668 201.669 104.53 194.453 116.305C187.237 128.08 176.057 136.894 162.923 141.161C149.789 145.429 135.563 144.87 122.804 139.585C110.046 134.3 99.5912 124.636 93.3216 112.331C87.052 100.027 85.3787 85.8886 88.6025 72.4601C91.4364 60.6562 97.8909 50.0815 107 42.1824C109.083 40.3755 112.223 40.8857 113.844 43.1168V43.1168C115.465 45.348 114.949 48.4526 112.898 50.2965C105.698 56.7703 100.592 65.3009 98.3136 74.7916C95.6449 85.9077 97.0301 97.6114 102.22 107.797C107.41 117.983 116.064 125.983 126.626 130.358C137.188 134.733 148.964 135.196 159.837 131.663C170.709 128.13 179.965 120.834 185.938 111.087C191.911 101.339 194.21 89.7804 192.422 78.4891C190.633 67.1978 184.875 56.9152 176.182 49.4907C168.76 43.1518 159.615 39.2515 149.985 38.2464C147.242 37.9601 145 35.7514 145 32.9935V32.9935Z" stroke="url(#paint4_linear_105_88)" stroke-width="20" stroke-linecap="round" stroke-linejoin="round" shape-rendering="crispEdges" mask="url(#path-5-inside-1_105_88)"/>
</g>
<path d="M121.154 86.005C123.219 86.005 124.934 85.76 126.229 85.27V87.02C126.229 89.155 125.809 90.625 125.004 91.5C124.199 92.375 122.729 92.795 120.559 92.795C118.844 92.795 117.199 92.515 115.659 91.99C114.854 91.71 114.574 91.92 114.574 92.795V93.285C114.574 94.02 114.749 94.23 115.694 94.615C116.989 95.105 118.564 95.35 120.419 95.35C126.544 95.35 128.959 92.83 128.959 86.95V80.685C128.959 74.91 126.754 71.935 121.189 71.935C116.114 71.935 113.664 74.21 113.664 79.25C113.664 84.045 115.974 86.005 121.154 86.005ZM121.504 83.625C117.724 83.625 116.394 82.505 116.394 79.11C116.394 75.785 117.619 74.49 120.979 74.49C123.079 74.49 124.479 75.015 125.179 76.03C125.879 77.045 126.229 78.655 126.229 80.86V82.82C124.934 83.345 123.359 83.625 121.504 83.625ZM146.436 86.705C146.436 91.15 145.001 92.795 141.116 92.795C137.336 92.795 135.831 91.08 135.831 86.705V80.65C135.831 76.275 137.336 74.49 141.116 74.49C145.001 74.49 146.436 76.275 146.436 80.65V86.705ZM141.116 95.35C146.961 95.35 149.201 92.585 149.201 86.705V80.65C149.201 74.735 146.961 71.97 141.116 71.97C135.341 71.97 133.031 74.77 133.031 80.65V86.705C133.031 92.55 135.376 95.35 141.116 95.35ZM170.815 72.25C169.87 72.25 169.52 72.46 169.065 73.3L158.355 93.95C157.9 94.79 158.04 95 158.985 95H159.37C160.315 95 160.665 94.79 161.12 93.95L171.83 73.3C172.285 72.46 172.145 72.25 171.2 72.25H170.815ZM163.64 77.64C163.64 73.825 161.89 71.935 158.39 71.935C154.855 71.935 153.105 73.825 153.105 77.64C153.105 81.42 154.855 83.31 158.39 83.31C161.89 83.31 163.64 81.42 163.64 77.64ZM158.39 74.105C160.49 74.105 161.33 75.12 161.33 77.64C161.33 80.16 160.49 81.14 158.39 81.14C156.255 81.14 155.45 80.16 155.45 77.64C155.45 75.12 156.255 74.105 158.39 74.105ZM177.045 89.61C177.045 85.83 175.295 83.94 171.76 83.94C168.26 83.94 166.51 85.83 166.51 89.61C166.51 93.425 168.26 95.315 171.76 95.315C175.295 95.315 177.045 93.425 177.045 89.61ZM171.76 93.145C169.66 93.145 168.855 92.13 168.855 89.61C168.855 87.09 169.66 86.11 171.76 86.11C173.86 86.11 174.7 87.09 174.7 89.61C174.7 92.13 173.895 93.145 171.76 93.145Z" fill="white"/>
<g clip-path="url(#clip0_105_88)" filter="url(#filter2_d_105_88)">
<path d="M239.3 237.84C238.549 237.546 237.746 237.41 236.94 237.44C236.213 237.425 235.486 237.438 234.76 237.48V244.2L235.54 244.24H236.6C237.38 244.24 238.16 244.12 238.9 243.88C239.54 243.7 240.1 243.32 240.54 242.82C240.96 242.32 241.16 241.64 241.16 240.76C241.205 240.138 241.049 239.518 240.714 238.992C240.378 238.466 239.883 238.062 239.3 237.84ZM258.5 221.6H227.5C225.246 221.6 223.084 222.496 221.49 224.09C219.896 225.684 219 227.846 219 230.1V259.9C219 264.6 222.8 268.4 227.5 268.4H258.5C263.2 268.4 267 264.6 267 259.9V230.1C267 225.4 263.2 221.6 258.5 221.6ZM244.32 244.9C243.52 246.02 242.4 246.86 241.1 247.34C239.74 247.84 238.24 248.02 236.6 248.02L235.6 248L234.74 247.98V254.4C234.746 254.433 234.744 254.467 234.736 254.5C234.728 254.532 234.713 254.563 234.692 254.589C234.671 254.615 234.645 254.637 234.616 254.653C234.586 254.668 234.553 254.678 234.52 254.68H230.64C230.48 254.68 230.4 254.6 230.4 254.42V233.84C230.4 233.7 230.46 233.62 230.6 233.62L231.72 233.6L233.24 233.56L234.98 233.52L236.8 233.5C238.44 233.5 239.8 233.7 240.92 234.12C241.92 234.46 242.84 235.02 243.6 235.76C244.24 236.4 244.74 237.18 245.06 238.04C245.36 238.88 245.52 239.74 245.52 240.64C245.52 242.36 245.12 243.78 244.32 244.9V244.9ZM257.96 238.6V242.5C257.96 242.66 257.86 242.72 257.64 242.72C256.32 242.672 255.007 242.925 253.8 243.46C253.42 243.64 253.06 243.88 252.78 244.2V254.4C252.78 254.6 252.7 254.68 252.52 254.68H248.58C248.543 254.686 248.506 254.684 248.469 254.675C248.433 254.666 248.399 254.65 248.37 254.627C248.34 254.605 248.315 254.577 248.296 254.545C248.277 254.513 248.265 254.477 248.26 254.44V243.28L248.24 241.78L248.2 240.22C248.2 239.76 248.16 239.32 248.12 238.86C248.113 238.813 248.124 238.765 248.149 238.724C248.175 238.684 248.214 238.654 248.26 238.64H251.82C252.02 238.64 252.18 238.78 252.22 238.96C252.401 239.556 252.488 240.177 252.48 240.8C253.08 240.1 253.82 239.52 254.64 239.08C255.57 238.564 256.617 238.295 257.68 238.3C257.82 238.28 257.94 238.38 257.96 238.52V238.6V238.6Z" fill="white"/>
</g>
<defs>
<filter id="filter0_b_105_88" x="-103" y="-103" width="497" height="497" filterUnits="userSpaceOnUse" color-interpolation-filters="sRGB">
<feFlood flood-opacity="0" result="BackgroundImageFix"/>
<feGaussianBlur in="BackgroundImage" stdDeviation="51.5"/>
<feComposite in2="SourceAlpha" operator="in" result="effect1_backgroundBlur_105_88"/>
<feBlend mode="normal" in="SourceGraphic" in2="effect1_backgroundBlur_105_88" result="shape"/>
</filter>
<filter id="filter1_d_105_88" x="74.9999" y="16.1978" width="140" height="139.802" filterUnits="userSpaceOnUse" color-interpolation-filters="sRGB">
<feFlood flood-opacity="0" result="BackgroundImageFix"/>
<feColorMatrix in="SourceAlpha" type="matrix" values="0 0 0 0 0 0 0 0 0 0 0 0 0 0 0 0 0 0 127 0" result="hardAlpha"/>
<feMorphology radius="2" operator="dilate" in="SourceAlpha" result="effect1_dropShadow_105_88"/>
<feOffset/>
<feGaussianBlur stdDeviation="5"/>
<feComposite in2="hardAlpha" operator="out"/>
<feColorMatrix type="matrix" values="0 0 0 0 0 0 0 0 0 0 0 0 0 0 0 0 0 0 0.25 0"/>
<feBlend mode="normal" in2="BackgroundImageFix" result="effect1_dropShadow_105_88"/>
<feBlend mode="normal" in="SourceGraphic" in2="effect1_dropShadow_105_88" result="shape"/>
</filter>
<filter id="filter2_d_105_88" x="207" y="209" width="72" height="72" filterUnits="userSpaceOnUse" color-interpolation-filters="sRGB">
<feFlood flood-opacity="0" result="BackgroundImageFix"/>
<feColorMatrix in="SourceAlpha" type="matrix" values="0 0 0 0 0 0 0 0 0 0 0 0 0 0 0 0 0 0 127 0" result="hardAlpha"/>
<feOffset/>
<feGaussianBlur stdDeviation="6"/>
<feColorMatrix type="matrix" values="0 0 0 0 0 0 0 0 0 0 0 0 0 0 0 0 0 0 0.31 0"/>
<feBlend mode="normal" in2="BackgroundImageFix" result="effect1_dropShadow_105_88"/>
<feBlend mode="normal" in="SourceGraphic" in2="effect1_dropShadow_105_88" result="shape"/>
</filter>
<linearGradient id="paint0_linear_105_88" x1="-7.64209e-06" y1="6.54365" x2="233.86" y2="320.139" gradientUnits="userSpaceOnUse">
<stop stop-color="#1E005E"/>
<stop offset="1" stop-color="#FF0000"/>
</linearGradient>
<radialGradient id="paint1_radial_105_88" cx="0" cy="0" r="1" gradientUnits="userSpaceOnUse" gradientTransform="translate(145.5 145.5) rotate(90) scale(145.5)">
<stop stop-color="white"/>
<stop offset="1" stop-color="white" stop-opacity="0"/>
</radialGradient>
<radialGradient id="paint2_radial_105_88" cx="0" cy="0" r="1" gradientUnits="userSpaceOnUse" gradientTransform="translate(145.5 145.5) rotate(90) scale(145.5)">
<stop stop-color="#E64467"/>
<stop offset="1" stop-opacity="0"/>
</radialGradient>
<radialGradient id="paint3_radial_105_88" cx="0" cy="0" r="1" gradientUnits="userSpaceOnUse" gradientTransform="translate(145.5 145.5) rotate(90) scale(145.5)">
<stop stop-color="#151515"/>
<stop offset="1" stop-color="#151515" stop-opacity="0"/>
</radialGradient>
<linearGradient id="paint4_linear_105_88" x1="145" y1="28" x2="144.134" y2="152.657" gradientUnits="userSpaceOnUse">
<stop offset="0.0348612" stop-color="#DF8E26"/>
<stop offset="0.44466" stop-color="#80A572"/>
<stop offset="1" stop-color="#22BCBC"/>
</linearGradient>
<clipPath id="clip0_105_88">
<rect width="48" height="48" fill="white" transform="translate(219 221)"/>
</clipPath>
</defs>
</svg>
