<svg width="291" height="291" viewBox="0 0 291 291" fill="none" xmlns="http://www.w3.org/2000/svg">
<g filter="url(#filter0_b_105_11)">
<rect width="291" height="291" rx="31" fill="url(#paint0_linear_105_11)" fill-opacity="0.7"/>
<rect x="1.75" y="1.75" width="287.5" height="287.5" rx="29.25" stroke="url(#paint1_radial_105_11)" stroke-width="3.5"/>
<rect x="1.75" y="1.75" width="287.5" height="287.5" rx="29.25" stroke="url(#paint2_radial_105_11)" stroke-opacity="0.2" stroke-width="3.5"/>
<rect x="1.75" y="1.75" width="287.5" height="287.5" rx="29.25" stroke="url(#paint3_radial_105_11)" stroke-opacity="0.2" stroke-width="3.5"/>
</g>
<path d="M44.625 197H47.025L40.75 179.675H38.125L31.825 197H34.225L35.625 193.125H43.225L44.625 197ZM42.575 191.275H36.275L39.425 182.475L42.575 191.275ZM49.2957 190.1C49.2957 194.35 52.1207 197.225 55.7957 197.225C58.2957 197.225 60.0707 195.95 60.8957 194.425V197H63.1957V178.5H60.8957V185.75C59.9457 184.175 57.9707 183.075 55.8207 183.075C52.1207 183.075 49.2957 185.825 49.2957 190.1ZM60.8957 190.125C60.8957 193.35 58.7457 195.225 56.2457 195.225C53.7457 195.225 51.6207 193.325 51.6207 190.1C51.6207 186.875 53.7457 185.05 56.2457 185.05C58.7457 185.05 60.8957 186.95 60.8957 190.125ZM80.4152 190.125C80.4152 185.8 77.3902 183.075 73.4902 183.075C69.6152 183.075 66.5652 185.8 66.5652 190.125C66.5652 194.475 69.5152 197.225 73.3902 197.225C77.2902 197.225 80.4152 194.475 80.4152 190.125ZM68.8902 190.125C68.8902 186.675 71.0652 185.05 73.4652 185.05C75.8152 185.05 78.0902 186.675 78.0902 190.125C78.0902 193.6 75.7652 195.225 73.3902 195.225C71.0152 195.225 68.8902 193.6 68.8902 190.125ZM86.0564 185.85V178.5H83.7814V197H86.0564V194.475C86.9064 195.975 88.6814 197.225 91.1814 197.225C94.8564 197.225 97.6814 194.35 97.6814 190.1C97.6814 185.825 94.8814 183.075 91.1814 183.075C88.7564 183.075 86.9314 184.325 86.0564 185.85ZM95.3564 190.1C95.3564 193.325 93.2314 195.225 90.7064 195.225C88.2314 195.225 86.0564 193.35 86.0564 190.125C86.0564 186.95 88.2314 185.05 90.7064 185.05C93.2314 185.05 95.3564 186.875 95.3564 190.1ZM106.876 185C109.226 185 111.226 186.475 111.201 189.15H102.551C102.801 186.475 104.651 185 106.876 185ZM113.276 192.775H110.826C110.326 194.25 109.026 195.3 106.976 195.3C104.651 195.3 102.701 193.775 102.526 191H113.476C113.526 190.525 113.551 190.125 113.551 189.625C113.551 185.875 110.951 183.075 106.976 183.075C102.976 183.075 100.201 185.8 100.201 190.125C100.201 194.475 103.076 197.225 106.976 197.225C110.376 197.225 112.576 195.275 113.276 192.775ZM126.244 187.85V181.45H129.594C132.194 181.45 133.294 182.65 133.294 184.675C133.294 186.625 132.194 187.85 129.594 187.85H126.244ZM135.619 184.675C135.619 181.825 133.694 179.575 129.594 179.575H123.969V197H126.244V189.725H129.594C133.919 189.725 135.619 187.325 135.619 184.675ZM138.821 197H141.096V189.425C141.096 186.475 142.696 185.025 145.021 185.025C147.321 185.025 148.846 186.45 148.846 189.25V197H151.096V188.925C151.096 185 148.671 183.05 145.621 183.05C143.696 183.05 141.996 183.825 141.096 185.275V178.5H138.821V197ZM168.188 190.125C168.188 185.8 165.163 183.075 161.263 183.075C157.388 183.075 154.338 185.8 154.338 190.125C154.338 194.475 157.288 197.225 161.163 197.225C165.063 197.225 168.188 194.475 168.188 190.125ZM156.663 190.125C156.663 186.675 158.838 185.05 161.238 185.05C163.588 185.05 165.863 186.675 165.863 190.125C165.863 193.6 163.538 195.225 161.163 195.225C158.788 195.225 156.663 193.6 156.663 190.125ZM172.054 193.25C172.054 196 173.429 197 175.854 197H177.904V195.075H176.229C174.829 195.075 174.329 194.6 174.329 193.25V185.175H177.904V183.3H174.329V179.85H172.054V183.3H170.279V185.175H172.054V193.25ZM194.035 190.125C194.035 185.8 191.01 183.075 187.11 183.075C183.235 183.075 180.185 185.8 180.185 190.125C180.185 194.475 183.135 197.225 187.01 197.225C190.91 197.225 194.035 194.475 194.035 190.125ZM182.51 190.125C182.51 186.675 184.685 185.05 187.085 185.05C189.435 185.05 191.71 186.675 191.71 190.125C191.71 193.6 189.385 195.225 187.01 195.225C184.635 195.225 182.51 193.6 182.51 190.125ZM207.252 193.275C207.152 188.375 199.202 190.15 199.202 186.9C199.202 185.8 200.202 185 201.877 185C203.702 185 204.752 186 204.852 187.375H207.127C206.977 184.7 204.977 183.075 201.952 183.075C198.902 183.075 196.927 184.8 196.927 186.9C196.927 192 205.027 190.225 205.027 193.275C205.027 194.4 204.027 195.3 202.227 195.3C200.302 195.3 199.127 194.3 199.002 192.975H196.652C196.802 195.475 199.052 197.225 202.252 197.225C205.277 197.225 207.252 195.525 207.252 193.275ZM210.838 197H213.113V189.425C213.113 186.475 214.713 185.025 217.038 185.025C219.338 185.025 220.863 186.45 220.863 189.25V197H223.113V188.925C223.113 185 220.688 183.05 217.638 183.05C215.713 183.05 214.013 183.825 213.113 185.275V178.5H210.838V197ZM240.204 190.125C240.204 185.8 237.179 183.075 233.279 183.075C229.404 183.075 226.354 185.8 226.354 190.125C226.354 194.475 229.304 197.225 233.179 197.225C237.079 197.225 240.204 194.475 240.204 190.125ZM228.679 190.125C228.679 186.675 230.854 185.05 233.254 185.05C235.604 185.05 237.879 186.675 237.879 190.125C237.879 193.6 235.554 195.225 233.179 195.225C230.804 195.225 228.679 193.6 228.679 190.125ZM245.846 185.825V183.3H243.571V203.5H245.846V194.475C246.696 195.875 248.471 197.225 250.971 197.225C254.646 197.225 257.471 194.35 257.471 190.1C257.471 185.825 254.646 183.075 250.971 183.075C248.471 183.075 246.671 184.375 245.846 185.825ZM255.146 190.1C255.146 193.325 253.021 195.225 250.496 195.225C248.021 195.225 245.846 193.35 245.846 190.125C245.846 186.95 248.021 185.05 250.496 185.05C253.021 185.05 255.146 186.875 255.146 190.1Z" fill="white"/>
<g clip-path="url(#clip0_105_11)" filter="url(#filter1_d_105_11)">
<g filter="url(#filter2_d_105_11)">
<path d="M237.521 237.542C236.75 237.229 235.917 237.104 235.062 237.125C234.521 237.125 234.042 237.125 233.646 237.146C233.229 237.125 232.937 237.146 232.792 237.167V244.167C233.083 244.187 233.354 244.208 233.604 244.208H234.708C235.521 244.208 236.333 244.083 237.104 243.833C237.771 243.646 238.354 243.25 238.812 242.729C239.25 242.208 239.458 241.5 239.458 240.583C239.479 239.937 239.312 239.292 238.979 238.729C238.632 238.188 238.121 237.772 237.521 237.542ZM258.146 220.625H225.854C220.958 220.625 217 224.583 217 229.479V260.519C217 265.415 220.958 269.373 225.854 269.373H258.146C263.042 269.373 267 265.415 267 260.519V229.479C267 224.583 263.042 220.625 258.146 220.625ZM242.748 244.896C241.917 246.062 240.75 246.937 239.396 247.437C237.979 247.958 236.417 248.146 234.708 248.146C234.208 248.146 233.875 248.146 233.667 248.125C233.458 248.104 233.167 248.104 232.771 248.104V254.79C232.792 254.935 232.687 255.063 232.542 255.083H228.5C228.333 255.083 228.25 254.998 228.25 254.81V233.375C228.25 233.229 228.312 233.146 228.458 233.146C228.812 233.146 229.146 233.146 229.625 233.125C230.125 233.104 230.646 233.104 231.208 233.083C231.771 233.062 232.375 233.062 233.021 233.042C233.667 233.021 234.292 233.021 234.917 233.021C236.625 233.021 238.042 233.229 239.208 233.667C240.25 234.021 241.208 234.604 242 235.375C242.667 236.042 243.187 236.854 243.521 237.75C243.831 238.625 243.998 239.521 243.998 240.458C244 242.25 243.583 243.729 242.748 244.896V244.896ZM257.521 253C256.938 253.833 256.123 254.477 255.187 254.856C254.167 255.292 252.917 255.519 251.415 255.519C250.458 255.519 249.519 255.438 248.583 255.25C247.854 255.123 247.125 254.896 246.458 254.583C246.312 254.502 246.206 254.356 246.227 254.19V250.565C246.227 250.504 246.25 250.419 246.312 250.377C246.373 250.335 246.437 250.356 246.5 250.398C247.312 250.877 248.167 251.212 249.083 251.419C249.873 251.627 250.706 251.731 251.542 251.731C252.333 251.731 252.896 251.625 253.271 251.437C253.604 251.292 253.833 250.937 253.833 250.562C253.833 250.269 253.667 250 253.333 249.729C253 249.46 252.315 249.148 251.294 248.748C250.231 248.373 249.254 247.873 248.335 247.25C247.684 246.783 247.142 246.179 246.75 245.479C246.419 244.82 246.255 244.09 246.273 243.352C246.273 242.456 246.523 241.602 246.983 240.831C247.504 239.998 248.273 239.331 249.169 238.915C250.146 238.417 251.375 238.187 252.854 238.187C253.708 238.187 254.583 238.25 255.438 238.375C256.063 238.458 256.667 238.625 257.229 238.854C257.31 238.875 257.396 238.958 257.437 239.042C257.458 239.125 257.479 239.208 257.479 239.292V242.687C257.479 242.771 257.437 242.854 257.375 242.896C257.187 242.937 257.083 242.937 257 242.896C256.375 242.562 255.708 242.333 255 242.187C254.229 242.021 253.458 241.917 252.667 241.917C252.25 241.896 251.812 241.958 251.415 242.062C251.146 242.125 250.915 242.271 250.769 242.479C250.665 242.646 250.602 242.854 250.602 243.042C250.602 243.229 250.685 243.417 250.812 243.583C251 243.812 251.248 244 251.521 244.146C251.998 244.396 252.5 244.625 252.998 244.833C254.125 245.208 255.208 245.729 256.208 246.354C256.896 246.79 257.458 247.375 257.852 248.083C258.185 248.746 258.352 249.479 258.331 250.227C258.354 251.208 258.063 252.185 257.521 253V253Z" fill="white"/>
</g>
</g>
<path d="M203 86C203 118.033 177.033 144 145 144C112.967 144 87 118.033 87 86C87 53.9675 112.967 28 145 28C177.033 28 203 53.9675 203 86ZM96.987 86C96.987 112.517 118.483 134.013 145 134.013C171.517 134.013 193.013 112.517 193.013 86C193.013 59.4832 171.517 37.987 145 37.987C118.483 37.987 96.987 59.4832 96.987 86Z" fill="white"/>
<g filter="url(#filter3_d_105_11)">
<mask id="path-6-inside-1_105_11" fill="white">
<path d="M145 32.9935C145 30.2357 147.24 27.9777 149.988 28.2147C162.77 29.3177 174.88 34.6366 184.37 43.4093C195.088 53.3163 201.676 66.8996 202.821 81.4494C203.966 95.9992 199.584 110.446 190.548 121.907C181.513 133.369 168.488 141.003 154.073 143.286C139.658 145.569 124.912 142.334 112.777 134.225C100.642 126.117 92.0096 113.731 88.6025 99.5398C85.1955 85.3482 87.2639 70.3939 94.3952 57.6599C100.71 46.384 110.584 37.5832 122.4 32.5842C124.94 31.5097 127.768 32.965 128.62 35.5878V35.5878C129.472 38.2107 128.023 41.0041 125.502 42.124C116.071 46.3151 108.195 53.4575 103.109 62.5398C97.2055 73.0811 95.4932 85.4605 98.3136 97.2084C101.134 108.956 108.28 119.209 118.325 125.921C128.371 132.634 140.578 135.312 152.511 133.422C164.444 131.532 175.226 125.213 182.705 115.725C190.185 106.237 193.813 94.2774 192.865 82.233C191.917 70.1885 186.463 58.9441 177.591 50.743C169.947 43.677 160.25 39.3177 149.985 38.2464C147.242 37.9601 145 35.7514 145 32.9935V32.9935Z"/>
</mask>
<path d="M145 32.9935C145 30.2357 147.24 27.9777 149.988 28.2147C162.77 29.3177 174.88 34.6366 184.37 43.4093C195.088 53.3163 201.676 66.8996 202.821 81.4494C203.966 95.9992 199.584 110.446 190.548 121.907C181.513 133.369 168.488 141.003 154.073 143.286C139.658 145.569 124.912 142.334 112.777 134.225C100.642 126.117 92.0096 113.731 88.6025 99.5398C85.1955 85.3482 87.2639 70.3939 94.3952 57.6599C100.71 46.384 110.584 37.5832 122.4 32.5842C124.94 31.5097 127.768 32.965 128.62 35.5878V35.5878C129.472 38.2107 128.023 41.0041 125.502 42.124C116.071 46.3151 108.195 53.4575 103.109 62.5398C97.2055 73.0811 95.4932 85.4605 98.3136 97.2084C101.134 108.956 108.28 119.209 118.325 125.921C128.371 132.634 140.578 135.312 152.511 133.422C164.444 131.532 175.226 125.213 182.705 115.725C190.185 106.237 193.813 94.2774 192.865 82.233C191.917 70.1885 186.463 58.9441 177.591 50.743C169.947 43.677 160.25 39.3177 149.985 38.2464C147.242 37.9601 145 35.7514 145 32.9935V32.9935Z" stroke="url(#paint4_linear_105_11)" stroke-width="20" stroke-linecap="round" stroke-linejoin="round" shape-rendering="crispEdges" mask="url(#path-6-inside-1_105_11)"/>
</g>
<path d="M127.752 86.005C129.817 86.005 131.532 85.76 132.827 85.27V87.02C132.827 89.155 132.407 90.625 131.602 91.5C130.797 92.375 129.327 92.795 127.157 92.795C125.442 92.795 123.797 92.515 122.257 91.99C121.452 91.71 121.172 91.92 121.172 92.795V93.285C121.172 94.02 121.347 94.23 122.292 94.615C123.587 95.105 125.162 95.35 127.017 95.35C133.142 95.35 135.557 92.83 135.557 86.95V80.685C135.557 74.91 133.352 71.935 127.787 71.935C122.712 71.935 120.262 74.21 120.262 79.25C120.262 84.045 122.572 86.005 127.752 86.005ZM128.102 83.625C124.322 83.625 122.992 82.505 122.992 79.11C122.992 75.785 124.217 74.49 127.577 74.49C129.677 74.49 131.077 75.015 131.777 76.03C132.477 77.045 132.827 78.655 132.827 80.86V82.82C131.532 83.345 129.957 83.625 128.102 83.625ZM146.734 86.005C148.799 86.005 150.514 85.76 151.809 85.27V87.02C151.809 89.155 151.389 90.625 150.584 91.5C149.779 92.375 148.309 92.795 146.139 92.795C144.424 92.795 142.779 92.515 141.239 91.99C140.434 91.71 140.154 91.92 140.154 92.795V93.285C140.154 94.02 140.329 94.23 141.274 94.615C142.569 95.105 144.144 95.35 145.999 95.35C152.124 95.35 154.539 92.83 154.539 86.95V80.685C154.539 74.91 152.334 71.935 146.769 71.935C141.694 71.935 139.244 74.21 139.244 79.25C139.244 84.045 141.554 86.005 146.734 86.005ZM147.084 83.625C143.304 83.625 141.974 82.505 141.974 79.11C141.974 75.785 143.199 74.49 146.559 74.49C148.659 74.49 150.059 75.015 150.759 76.03C151.459 77.045 151.809 78.655 151.809 80.86V82.82C150.514 83.345 148.939 83.625 147.084 83.625ZM176.216 72.25C175.271 72.25 174.921 72.46 174.466 73.3L163.756 93.95C163.301 94.79 163.441 95 164.386 95H164.771C165.716 95 166.066 94.79 166.521 93.95L177.231 73.3C177.686 72.46 177.546 72.25 176.601 72.25H176.216ZM169.041 77.64C169.041 73.825 167.291 71.935 163.791 71.935C160.256 71.935 158.506 73.825 158.506 77.64C158.506 81.42 160.256 83.31 163.791 83.31C167.291 83.31 169.041 81.42 169.041 77.64ZM163.791 74.105C165.891 74.105 166.731 75.12 166.731 77.64C166.731 80.16 165.891 81.14 163.791 81.14C161.656 81.14 160.851 80.16 160.851 77.64C160.851 75.12 161.656 74.105 163.791 74.105ZM182.446 89.61C182.446 85.83 180.696 83.94 177.161 83.94C173.661 83.94 171.911 85.83 171.911 89.61C171.911 93.425 173.661 95.315 177.161 95.315C180.696 95.315 182.446 93.425 182.446 89.61ZM177.161 93.145C175.061 93.145 174.256 92.13 174.256 89.61C174.256 87.09 175.061 86.11 177.161 86.11C179.261 86.11 180.101 87.09 180.101 89.61C180.101 92.13 179.296 93.145 177.161 93.145Z" fill="white"/>
<defs>
<filter id="filter0_b_105_11" x="-103" y="-103" width="497" height="497" filterUnits="userSpaceOnUse" color-interpolation-filters="sRGB">
<feFlood flood-opacity="0" result="BackgroundImageFix"/>
<feGaussianBlur in="BackgroundImage" stdDeviation="51.5"/>
<feComposite in2="SourceAlpha" operator="in" result="effect1_backgroundBlur_105_11"/>
<feBlend mode="normal" in="SourceGraphic" in2="effect1_backgroundBlur_105_11" result="shape"/>
</filter>
<filter id="filter1_d_105_11" x="205" y="208" width="74" height="74" filterUnits="userSpaceOnUse" color-interpolation-filters="sRGB">
<feFlood flood-opacity="0" result="BackgroundImageFix"/>
<feColorMatrix in="SourceAlpha" type="matrix" values="0 0 0 0 0 0 0 0 0 0 0 0 0 0 0 0 0 0 127 0" result="hardAlpha"/>
<feOffset/>
<feGaussianBlur stdDeviation="6"/>
<feComposite in2="hardAlpha" operator="out"/>
<feColorMatrix type="matrix" values="0 0 0 0 0 0 0 0 0 0 0 0 0 0 0 0 0 0 0.31 0"/>
<feBlend mode="normal" in2="BackgroundImageFix" result="effect1_dropShadow_105_11"/>
<feBlend mode="normal" in="SourceGraphic" in2="effect1_dropShadow_105_11" result="shape"/>
</filter>
<filter id="filter2_d_105_11" x="205" y="208.625" width="74" height="72.748" filterUnits="userSpaceOnUse" color-interpolation-filters="sRGB">
<feFlood flood-opacity="0" result="BackgroundImageFix"/>
<feColorMatrix in="SourceAlpha" type="matrix" values="0 0 0 0 0 0 0 0 0 0 0 0 0 0 0 0 0 0 127 0" result="hardAlpha"/>
<feOffset/>
<feGaussianBlur stdDeviation="6"/>
<feComposite in2="hardAlpha" operator="out"/>
<feColorMatrix type="matrix" values="0 0 0 0 0 0 0 0 0 0 0 0 0 0 0 0 0 0 0.3 0"/>
<feBlend mode="normal" in2="BackgroundImageFix" result="effect1_dropShadow_105_11"/>
<feBlend mode="normal" in="SourceGraphic" in2="effect1_dropShadow_105_11" result="shape"/>
</filter>
<filter id="filter3_d_105_11" x="74.9999" y="16.1975" width="140" height="139.803" filterUnits="userSpaceOnUse" color-interpolation-filters="sRGB">
<feFlood flood-opacity="0" result="BackgroundImageFix"/>
<feColorMatrix in="SourceAlpha" type="matrix" values="0 0 0 0 0 0 0 0 0 0 0 0 0 0 0 0 0 0 127 0" result="hardAlpha"/>
<feMorphology radius="2" operator="dilate" in="SourceAlpha" result="effect1_dropShadow_105_11"/>
<feOffset/>
<feGaussianBlur stdDeviation="5"/>
<feComposite in2="hardAlpha" operator="out"/>
<feColorMatrix type="matrix" values="0 0 0 0 0 0 0 0 0 0 0 0 0 0 0 0 0 0 0.25 0"/>
<feBlend mode="normal" in2="BackgroundImageFix" result="effect1_dropShadow_105_11"/>
<feBlend mode="normal" in="SourceGraphic" in2="effect1_dropShadow_105_11" result="shape"/>
</filter>
<linearGradient id="paint0_linear_105_11" x1="-7.64209e-06" y1="6.54365" x2="233.86" y2="320.139" gradientUnits="userSpaceOnUse">
<stop stop-color="#1E005E"/>
<stop offset="1" stop-color="#FF0000"/>
</linearGradient>
<radialGradient id="paint1_radial_105_11" cx="0" cy="0" r="1" gradientUnits="userSpaceOnUse" gradientTransform="translate(145.5 145.5) rotate(90) scale(145.5)">
<stop stop-color="white"/>
<stop offset="1" stop-color="white" stop-opacity="0"/>
</radialGradient>
<radialGradient id="paint2_radial_105_11" cx="0" cy="0" r="1" gradientUnits="userSpaceOnUse" gradientTransform="translate(145.5 145.5) rotate(90) scale(145.5)">
<stop stop-color="#E64467"/>
<stop offset="1" stop-opacity="0"/>
</radialGradient>
<radialGradient id="paint3_radial_105_11" cx="0" cy="0" r="1" gradientUnits="userSpaceOnUse" gradientTransform="translate(145.5 145.5) rotate(90) scale(145.5)">
<stop stop-color="#151515"/>
<stop offset="1" stop-color="#151515" stop-opacity="0"/>
</radialGradient>
<linearGradient id="paint4_linear_105_11" x1="145" y1="28" x2="144.134" y2="152.657" gradientUnits="userSpaceOnUse">
<stop offset="0.0348612" stop-color="#DF8E26"/>
<stop offset="0.44466" stop-color="#80A572"/>
<stop offset="1" stop-color="#22BCBC"/>
</linearGradient>
<clipPath id="clip0_105_11">
<rect width="50" height="50" fill="white" transform="translate(217 220)"/>
</clipPath>
</defs>
</svg>
