<svg width="66" height="482" viewBox="0 0 66 482" fill="none" xmlns="http://www.w3.org/2000/svg">
<path d="M39.7603 291.241C39.1011 291.241 38.5151 291.343 38.0024 291.548C37.4897 291.739 37.021 292.083 36.5962 292.581C36.1714 293.079 35.7612 293.782 35.3657 294.69C34.9556 295.584 34.5381 296.727 34.1133 298.118C33.6445 299.642 33.1245 301.048 32.5532 302.337C31.9673 303.611 31.2935 304.725 30.5317 305.677C29.7554 306.629 28.8691 307.369 27.873 307.896C26.8623 308.423 25.6978 308.687 24.3794 308.687C23.0757 308.687 21.8892 308.416 20.8198 307.874C19.7505 307.317 18.8276 306.534 18.0513 305.523C17.2603 304.498 16.6523 303.289 16.2275 301.897C15.7881 300.506 15.5684 298.968 15.5684 297.283C15.5684 294.91 16.0078 292.867 16.8867 291.153C17.7656 289.424 18.9448 288.099 20.4243 287.176C21.9038 286.238 23.5371 285.77 25.3242 285.77V291.241C24.2695 291.241 23.3394 291.468 22.5337 291.922C21.7134 292.361 21.0688 293.035 20.6001 293.943C20.1313 294.837 19.897 295.972 19.897 297.349C19.897 298.653 20.0947 299.737 20.4902 300.601C20.8857 301.465 21.4204 302.11 22.0942 302.535C22.7681 302.959 23.5298 303.172 24.3794 303.172C24.98 303.172 25.5293 303.033 26.0273 302.754C26.5107 302.476 26.9648 302.051 27.3896 301.48C27.7998 300.909 28.188 300.191 28.5542 299.327C28.9204 298.462 29.272 297.444 29.6089 296.272C30.1362 294.5 30.7222 292.955 31.3667 291.636C31.9966 290.318 32.7144 289.219 33.52 288.34C34.3257 287.461 35.2412 286.802 36.2666 286.363C37.2773 285.923 38.4272 285.704 39.7163 285.704C41.064 285.704 42.2798 285.975 43.3638 286.517C44.4331 287.059 45.3486 287.835 46.1104 288.846C46.8574 289.842 47.436 291.043 47.8462 292.449C48.2417 293.841 48.4395 295.394 48.4395 297.107C48.4395 298.646 48.2344 300.162 47.8242 301.656C47.4141 303.135 46.7915 304.483 45.9565 305.699C45.1069 306.915 44.0522 307.881 42.7925 308.599C41.5181 309.317 40.0312 309.676 38.332 309.676V304.161C39.3721 304.161 40.2583 303.985 40.9907 303.633C41.7231 303.267 42.3237 302.762 42.7925 302.117C43.2466 301.473 43.5835 300.726 43.8032 299.876C44.0229 299.012 44.1328 298.089 44.1328 297.107C44.1328 295.818 43.9497 294.742 43.5835 293.877C43.2173 292.999 42.7046 292.339 42.0454 291.9C41.3862 291.46 40.6245 291.241 39.7603 291.241ZM16.0078 274.636H48V280.151H16.0078V274.636ZM16.0078 255.409L31.4106 268.373L39.2329 275.756L33.7617 276.723L27.2578 271.45L16.0078 262.133V255.409ZM48 261.342L32.8389 271.867L29.0815 268.066L48 254.794V261.342ZM16.0078 245.154H48V250.67H16.0078V245.154ZM43.6274 217.585H48V233.647H43.6274V217.585ZM16.0078 232.109H48V237.624H16.0078V232.109ZM43.6274 192.608H48V208.67H43.6274V192.608ZM16.0078 207.132H48V212.647H16.0078V207.132ZM39.7603 170.839C39.1011 170.839 38.5151 170.942 38.0024 171.147C37.4897 171.337 37.021 171.682 36.5962 172.18C36.1714 172.678 35.7612 173.381 35.3657 174.289C34.9556 175.183 34.5381 176.325 34.1133 177.717C33.6445 179.24 33.1245 180.646 32.5532 181.936C31.9673 183.21 31.2935 184.323 30.5317 185.275C29.7554 186.228 28.8691 186.967 27.873 187.495C26.8623 188.022 25.6978 188.286 24.3794 188.286C23.0757 188.286 21.8892 188.015 20.8198 187.473C19.7505 186.916 18.8276 186.132 18.0513 185.122C17.2603 184.096 16.6523 182.888 16.2275 181.496C15.7881 180.104 15.5684 178.566 15.5684 176.882C15.5684 174.509 16.0078 172.465 16.8867 170.751C17.7656 169.023 18.9448 167.697 20.4243 166.774C21.9038 165.837 23.5371 165.368 25.3242 165.368V170.839C24.2695 170.839 23.3394 171.066 22.5337 171.521C21.7134 171.96 21.0688 172.634 20.6001 173.542C20.1313 174.436 19.897 175.571 19.897 176.948C19.897 178.251 20.0947 179.335 20.4902 180.2C20.8857 181.064 21.4204 181.708 22.0942 182.133C22.7681 182.558 23.5298 182.771 24.3794 182.771C24.98 182.771 25.5293 182.631 26.0273 182.353C26.5107 182.075 26.9648 181.65 27.3896 181.079C27.7998 180.507 28.188 179.79 28.5542 178.925C28.9204 178.061 29.272 177.043 29.6089 175.871C30.1362 174.099 30.7222 172.553 31.3667 171.235C31.9966 169.917 32.7144 168.818 33.52 167.939C34.3257 167.06 35.2412 166.401 36.2666 165.961C37.2773 165.522 38.4272 165.302 39.7163 165.302C41.064 165.302 42.2798 165.573 43.3638 166.115C44.4331 166.657 45.3486 167.434 46.1104 168.444C46.8574 169.44 47.436 170.642 47.8462 172.048C48.2417 173.439 48.4395 174.992 48.4395 176.706C48.4395 178.244 48.2344 179.76 47.8242 181.254C47.4141 182.734 46.7915 184.082 45.9565 185.297C45.1069 186.513 44.0522 187.48 42.7925 188.198C41.5181 188.916 40.0312 189.274 38.332 189.274V183.759C39.3721 183.759 40.2583 183.583 40.9907 183.232C41.7231 182.866 42.3237 182.36 42.7925 181.716C43.2466 181.071 43.5835 180.324 43.8032 179.475C44.0229 178.61 44.1328 177.688 44.1328 176.706C44.1328 175.417 43.9497 174.34 43.5835 173.476C43.2173 172.597 42.7046 171.938 42.0454 171.499C41.3862 171.059 40.6245 170.839 39.7603 170.839Z" fill="#E64467"/>
<path d="M34.0607 481.061C33.4749 481.646 32.5251 481.646 31.9393 481.061L22.3934 471.515C21.8076 470.929 21.8076 469.979 22.3934 469.393C22.9792 468.808 23.9289 468.808 24.5147 469.393L33 477.879L41.4853 469.393C42.0711 468.808 43.0208 468.808 43.6066 469.393C44.1924 469.979 44.1924 470.929 43.6066 471.515L34.0607 481.061ZM34.5 349L34.5 480L31.5 480L31.5 349L34.5 349Z" fill="#E64467"/>
<path d="M34.0607 0.939346C33.4749 0.353546 32.5251 0.353546 31.9393 0.939346L22.3934 10.4853C21.8076 11.0711 21.8076 12.0208 22.3934 12.6066C22.9792 13.1924 23.9289 13.1924 24.5147 12.6066L33 4.12132L41.4853 12.6066C42.0711 13.1924 43.0208 13.1924 43.6066 12.6066C44.1924 12.0208 44.1924 11.0711 43.6066 10.4853L34.0607 0.939346ZM34.5 133L34.5 2L31.5 2L31.5 133L34.5 133Z" fill="#E64467"/>
</svg>
