<svg width="291" height="291" viewBox="0 0 291 291" fill="none" xmlns="http://www.w3.org/2000/svg">
<g filter="url(#filter0_b_105_126)">
<rect width="291" height="291" rx="31" fill="url(#paint0_linear_105_126)" fill-opacity="0.7"/>
<rect x="1.75" y="1.75" width="287.5" height="287.5" rx="29.25" stroke="url(#paint1_radial_105_126)" stroke-width="3.5"/>
<rect x="1.75" y="1.75" width="287.5" height="287.5" rx="29.25" stroke="url(#paint2_radial_105_126)" stroke-opacity="0.2" stroke-width="3.5"/>
<rect x="1.75" y="1.75" width="287.5" height="287.5" rx="29.25" stroke="url(#paint3_radial_105_126)" stroke-opacity="0.2" stroke-width="3.5"/>
</g>
<path d="M99.814 207H102.214L95.939 189.675H93.314L87.014 207H89.414L90.814 203.125H98.414L99.814 207ZM97.764 201.275H91.464L94.614 192.475L97.764 201.275ZM104.485 200.1C104.485 204.35 107.31 207.225 110.985 207.225C113.485 207.225 115.26 205.95 116.085 204.425V207H118.385V188.5H116.085V195.75C115.135 194.175 113.16 193.075 111.01 193.075C107.31 193.075 104.485 195.825 104.485 200.1ZM116.085 200.125C116.085 203.35 113.935 205.225 111.435 205.225C108.935 205.225 106.81 203.325 106.81 200.1C106.81 196.875 108.935 195.05 111.435 195.05C113.935 195.05 116.085 196.95 116.085 200.125ZM135.604 200.125C135.604 195.8 132.579 193.075 128.679 193.075C124.804 193.075 121.754 195.8 121.754 200.125C121.754 204.475 124.704 207.225 128.579 207.225C132.479 207.225 135.604 204.475 135.604 200.125ZM124.079 200.125C124.079 196.675 126.254 195.05 128.654 195.05C131.004 195.05 133.279 196.675 133.279 200.125C133.279 203.6 130.954 205.225 128.579 205.225C126.204 205.225 124.079 203.6 124.079 200.125ZM141.245 195.85V188.5H138.97V207H141.245V204.475C142.095 205.975 143.87 207.225 146.37 207.225C150.045 207.225 152.87 204.35 152.87 200.1C152.87 195.825 150.07 193.075 146.37 193.075C143.945 193.075 142.12 194.325 141.245 195.85ZM150.545 200.1C150.545 203.325 148.42 205.225 145.895 205.225C143.42 205.225 141.245 203.35 141.245 200.125C141.245 196.95 143.42 195.05 145.895 195.05C148.42 195.05 150.545 196.875 150.545 200.1ZM162.065 195C164.415 195 166.415 196.475 166.39 199.15H157.74C157.99 196.475 159.84 195 162.065 195ZM168.465 202.775H166.015C165.515 204.25 164.215 205.3 162.165 205.3C159.84 205.3 157.89 203.775 157.715 201H168.665C168.715 200.525 168.74 200.125 168.74 199.625C168.74 195.875 166.14 193.075 162.165 193.075C158.165 193.075 155.39 195.8 155.39 200.125C155.39 204.475 158.265 207.225 162.165 207.225C165.565 207.225 167.765 205.275 168.465 202.775ZM189.058 207H191.633L186.283 198.3L191.658 189.575H189.108L185.108 196.4L180.908 189.575H178.358L183.708 198.3L178.383 207H180.908L184.883 200.2L189.058 207ZM200.485 189.575H195.06V207H200.485C206.21 207 209.735 203.725 209.735 198.325C209.735 192.925 206.21 189.575 200.485 189.575ZM197.335 205.125V191.425H200.485C205.035 191.425 207.41 194.075 207.41 198.325C207.41 202.575 205.035 205.125 200.485 205.125H197.335Z" fill="white"/>
<path d="M203 86C203 118.033 177.033 144 145 144C112.967 144 87 118.033 87 86C87 53.9675 112.967 28 145 28C177.033 28 203 53.9675 203 86ZM96.987 86C96.987 112.517 118.483 134.013 145 134.013C171.517 134.013 193.013 112.517 193.013 86C193.013 59.4832 171.517 37.987 145 37.987C118.483 37.987 96.987 59.4832 96.987 86Z" fill="white"/>
<g filter="url(#filter1_d_105_126)">
<mask id="path-5-inside-1_105_126" fill="white">
<path d="M145 32.9935C145 30.2357 147.24 27.9777 149.988 28.2148C159.7 29.053 169.073 32.3291 177.223 37.7748C186.761 44.1479 194.195 53.2062 198.585 63.8044C202.975 74.4025 204.123 86.0643 201.886 97.3152C199.648 108.566 194.124 118.901 186.012 127.012C177.901 135.124 167.566 140.648 156.315 142.886C145.064 145.123 133.402 143.975 122.804 139.585C112.206 135.195 103.148 127.761 96.7748 118.223C91.3291 110.073 88.053 100.7 87.2148 90.9875C86.9777 88.2399 89.2357 86 91.9935 86V86C94.7514 86 96.9601 88.2417 97.2464 90.9847C98.0537 98.7187 100.731 106.168 105.079 112.675C110.354 120.57 117.853 126.724 126.626 130.358C135.399 133.992 145.053 134.943 154.367 133.09C163.68 131.238 172.236 126.665 178.95 119.95C185.665 113.236 190.238 104.68 192.09 95.3669C193.943 86.0533 192.992 76.3995 189.358 67.6262C185.724 58.853 179.57 51.3544 171.675 46.0787C165.168 41.7309 157.719 39.0537 149.985 38.2464C147.242 37.9601 145 35.7514 145 32.9935V32.9935Z"/>
</mask>
<path d="M145 32.9935C145 30.2357 147.24 27.9777 149.988 28.2148C159.7 29.053 169.073 32.3291 177.223 37.7748C186.761 44.1479 194.195 53.2062 198.585 63.8044C202.975 74.4025 204.123 86.0643 201.886 97.3152C199.648 108.566 194.124 118.901 186.012 127.012C177.901 135.124 167.566 140.648 156.315 142.886C145.064 145.123 133.402 143.975 122.804 139.585C112.206 135.195 103.148 127.761 96.7748 118.223C91.3291 110.073 88.053 100.7 87.2148 90.9875C86.9777 88.2399 89.2357 86 91.9935 86V86C94.7514 86 96.9601 88.2417 97.2464 90.9847C98.0537 98.7187 100.731 106.168 105.079 112.675C110.354 120.57 117.853 126.724 126.626 130.358C135.399 133.992 145.053 134.943 154.367 133.09C163.68 131.238 172.236 126.665 178.95 119.95C185.665 113.236 190.238 104.68 192.09 95.3669C193.943 86.0533 192.992 76.3995 189.358 67.6262C185.724 58.853 179.57 51.3544 171.675 46.0787C165.168 41.7309 157.719 39.0537 149.985 38.2464C147.242 37.9601 145 35.7514 145 32.9935V32.9935Z" stroke="url(#paint4_linear_105_126)" stroke-width="20" stroke-linecap="round" stroke-linejoin="round" shape-rendering="crispEdges" mask="url(#path-5-inside-1_105_126)"/>
</g>
<path d="M119.62 95C120.635 95 121.02 94.755 121.545 93.81L127.74 81.175C128.93 78.795 129.525 77.01 129.525 75.785C129.525 73.44 127.985 72.25 124.87 72.25H116.4C115.525 72.25 115.315 72.46 115.315 73.335V73.72C115.315 74.595 115.525 74.805 116.4 74.805H124.695C126.235 74.805 126.795 75.155 126.795 76.135C126.795 76.695 126.585 77.43 126.165 78.305L118.465 93.81C118.01 94.755 118.115 95 119.2 95H119.62ZM133.402 80.44C133.402 83.1 134.557 84.255 137.217 84.255H138.862C140.997 84.255 142.537 84.535 143.412 85.13C144.287 85.725 144.742 86.845 144.742 88.525C144.742 91.43 143.307 92.76 139.422 92.76C137.427 92.76 135.677 92.515 134.207 92.025C133.367 91.745 133.122 91.955 133.122 92.9V93.46C133.122 94.16 133.367 94.44 134.172 94.685C135.642 95.105 137.392 95.315 139.422 95.315C144.847 95.315 147.472 93.11 147.472 88.49C147.472 83.835 144.952 81.7 139.352 81.7H137.777C136.622 81.7 136.132 81.175 136.132 80.02V76.45C136.132 75.295 136.622 74.805 137.777 74.805H145.162C146.037 74.805 146.247 74.595 146.247 73.72V73.335C146.247 72.46 146.037 72.25 145.162 72.25H137.217C134.557 72.25 133.402 73.405 133.402 76.03V80.44ZM168.883 72.25C167.938 72.25 167.588 72.46 167.133 73.3L156.423 93.95C155.968 94.79 156.108 95 157.053 95H157.438C158.383 95 158.733 94.79 159.188 93.95L169.898 73.3C170.353 72.46 170.213 72.25 169.268 72.25H168.883ZM161.708 77.64C161.708 73.825 159.958 71.935 156.458 71.935C152.923 71.935 151.173 73.825 151.173 77.64C151.173 81.42 152.923 83.31 156.458 83.31C159.958 83.31 161.708 81.42 161.708 77.64ZM156.458 74.105C158.558 74.105 159.398 75.12 159.398 77.64C159.398 80.16 158.558 81.14 156.458 81.14C154.323 81.14 153.518 80.16 153.518 77.64C153.518 75.12 154.323 74.105 156.458 74.105ZM175.113 89.61C175.113 85.83 173.363 83.94 169.828 83.94C166.328 83.94 164.578 85.83 164.578 89.61C164.578 93.425 166.328 95.315 169.828 95.315C173.363 95.315 175.113 93.425 175.113 89.61ZM169.828 93.145C167.728 93.145 166.923 92.13 166.923 89.61C166.923 87.09 167.728 86.11 169.828 86.11C171.928 86.11 172.768 87.09 172.768 89.61C172.768 92.13 171.963 93.145 169.828 93.145Z" fill="white"/>
<g clip-path="url(#clip0_105_126)" filter="url(#filter2_d_105_126)">
<path d="M257.316 225.562H231.684C229.116 225.562 226.653 226.583 224.836 228.399C223.02 230.215 222 232.678 222 235.247V259.753C222 262.322 223.02 264.785 224.836 266.601C226.653 268.417 229.116 269.438 231.684 269.438H257.316C259.884 269.438 262.347 268.417 264.164 266.601C265.98 264.785 267 262.322 267 259.753V235.247C267 232.678 265.98 230.215 264.164 228.399C262.347 226.583 259.884 225.562 257.316 225.562V225.562ZM245.867 256.483H241.579C241.279 256.483 241.065 256.472 240.945 256.271C240.542 255.486 240.139 254.706 239.738 253.931C239.323 253.134 238.895 252.344 238.455 251.561C237.998 250.751 237.55 249.935 237.111 249.114H237.081C236.674 249.925 236.257 250.73 235.828 251.529C235.397 252.334 234.967 253.134 234.546 253.929C234.124 254.725 233.692 255.515 233.25 256.299C233.168 256.481 233.027 256.5 232.824 256.5H228.69C228.609 256.5 228.564 256.532 228.555 256.451C228.544 256.378 228.56 256.302 228.6 256.239L234.426 246.667L228.75 237.071C228.688 236.991 228.679 236.925 228.72 236.871C228.742 236.845 228.77 236.824 228.802 236.811C228.834 236.798 228.868 236.793 228.902 236.796H233.158C233.251 236.792 233.343 236.807 233.43 236.841C233.502 236.882 233.563 236.939 233.61 237.007C233.972 237.814 234.375 238.618 234.817 239.422C235.26 240.227 235.708 241.022 236.16 241.807C236.612 242.593 237.03 243.388 237.413 244.192H237.443C237.842 243.367 238.249 242.563 238.665 241.777C239.081 240.992 239.503 240.202 239.933 239.407C240.366 238.611 240.782 237.819 241.185 237.037C241.207 236.962 241.249 236.894 241.305 236.839C241.38 236.801 241.464 236.786 241.547 236.794H245.501C245.546 236.783 245.593 236.79 245.632 236.814C245.671 236.837 245.7 236.875 245.711 236.919C245.719 236.951 245.718 236.985 245.708 237.016C245.697 237.047 245.678 237.075 245.653 237.096L245.655 237.103L240.039 246.371L246.047 256.213C246.086 256.283 246.096 256.363 246.077 256.44C246.058 256.508 245.989 256.463 245.867 256.483V256.483ZM260.269 255.696C259.287 256.104 258.265 256.408 257.22 256.601C256.263 256.779 255.292 256.87 254.319 256.873C252.93 256.894 251.554 256.605 250.29 256.029C249.112 255.484 248.128 254.594 247.466 253.477C246.739 252.175 246.384 250.697 246.439 249.206C246.428 247.821 246.782 246.457 247.466 245.252C248.171 244.024 249.208 243.021 250.457 242.355C252.035 241.53 253.812 241.159 255.589 241.282C255.75 241.292 255.941 241.307 256.162 241.327V235.38C256.162 235.239 256.222 235.168 256.344 235.168H260.147C260.189 235.162 260.232 235.173 260.266 235.199C260.3 235.225 260.323 235.263 260.329 235.305C260.331 235.32 260.331 235.335 260.329 235.35V253.194C260.329 253.537 260.344 253.909 260.374 254.312C260.404 254.713 260.43 255.075 260.449 255.397C260.453 255.46 260.438 255.521 260.405 255.575C260.373 255.628 260.326 255.67 260.269 255.696V255.696ZM255.662 244.798C255.831 244.815 255.997 244.845 256.161 244.888V253.129C255.944 253.193 255.722 253.233 255.497 253.249C255.236 253.27 254.973 253.28 254.711 253.279C254.183 253.281 253.658 253.2 253.155 253.037C252.68 252.887 252.246 252.629 251.887 252.283C251.514 251.906 251.225 251.454 251.042 250.956C250.817 250.337 250.71 249.681 250.725 249.023C250.685 248.183 250.901 247.352 251.344 246.637C251.743 246.045 252.289 245.567 252.928 245.248C253.584 244.924 254.308 244.757 255.041 244.764C255.249 244.768 255.456 244.777 255.662 244.798Z" fill="white"/>
</g>
<defs>
<filter id="filter0_b_105_126" x="-103" y="-103" width="497" height="497" filterUnits="userSpaceOnUse" color-interpolation-filters="sRGB">
<feFlood flood-opacity="0" result="BackgroundImageFix"/>
<feGaussianBlur in="BackgroundImage" stdDeviation="51.5"/>
<feComposite in2="SourceAlpha" operator="in" result="effect1_backgroundBlur_105_126"/>
<feBlend mode="normal" in="SourceGraphic" in2="effect1_backgroundBlur_105_126" result="shape"/>
</filter>
<filter id="filter1_d_105_126" x="75.1977" y="16.1978" width="139.802" height="139.802" filterUnits="userSpaceOnUse" color-interpolation-filters="sRGB">
<feFlood flood-opacity="0" result="BackgroundImageFix"/>
<feColorMatrix in="SourceAlpha" type="matrix" values="0 0 0 0 0 0 0 0 0 0 0 0 0 0 0 0 0 0 127 0" result="hardAlpha"/>
<feMorphology radius="2" operator="dilate" in="SourceAlpha" result="effect1_dropShadow_105_126"/>
<feOffset/>
<feGaussianBlur stdDeviation="5"/>
<feComposite in2="hardAlpha" operator="out"/>
<feColorMatrix type="matrix" values="0 0 0 0 0 0 0 0 0 0 0 0 0 0 0 0 0 0 0.25 0"/>
<feBlend mode="normal" in2="BackgroundImageFix" result="effect1_dropShadow_105_126"/>
<feBlend mode="normal" in="SourceGraphic" in2="effect1_dropShadow_105_126" result="shape"/>
</filter>
<filter id="filter2_d_105_126" x="210" y="213" width="69" height="69" filterUnits="userSpaceOnUse" color-interpolation-filters="sRGB">
<feFlood flood-opacity="0" result="BackgroundImageFix"/>
<feColorMatrix in="SourceAlpha" type="matrix" values="0 0 0 0 0 0 0 0 0 0 0 0 0 0 0 0 0 0 127 0" result="hardAlpha"/>
<feOffset/>
<feGaussianBlur stdDeviation="6"/>
<feComposite in2="hardAlpha" operator="out"/>
<feColorMatrix type="matrix" values="0 0 0 0 0 0 0 0 0 0 0 0 0 0 0 0 0 0 0.3 0"/>
<feBlend mode="normal" in2="BackgroundImageFix" result="effect1_dropShadow_105_126"/>
<feBlend mode="normal" in="SourceGraphic" in2="effect1_dropShadow_105_126" result="shape"/>
</filter>
<linearGradient id="paint0_linear_105_126" x1="-7.64209e-06" y1="6.54365" x2="233.86" y2="320.139" gradientUnits="userSpaceOnUse">
<stop stop-color="#1E005E"/>
<stop offset="1" stop-color="#FF0000"/>
</linearGradient>
<radialGradient id="paint1_radial_105_126" cx="0" cy="0" r="1" gradientUnits="userSpaceOnUse" gradientTransform="translate(145.5 145.5) rotate(90) scale(145.5)">
<stop stop-color="white"/>
<stop offset="1" stop-color="white" stop-opacity="0"/>
</radialGradient>
<radialGradient id="paint2_radial_105_126" cx="0" cy="0" r="1" gradientUnits="userSpaceOnUse" gradientTransform="translate(145.5 145.5) rotate(90) scale(145.5)">
<stop stop-color="#E64467"/>
<stop offset="1" stop-opacity="0"/>
</radialGradient>
<radialGradient id="paint3_radial_105_126" cx="0" cy="0" r="1" gradientUnits="userSpaceOnUse" gradientTransform="translate(145.5 145.5) rotate(90) scale(145.5)">
<stop stop-color="#151515"/>
<stop offset="1" stop-color="#151515" stop-opacity="0"/>
</radialGradient>
<linearGradient id="paint4_linear_105_126" x1="145" y1="28" x2="144.134" y2="152.657" gradientUnits="userSpaceOnUse">
<stop offset="0.0348612" stop-color="#DF8E26"/>
<stop offset="0.44466" stop-color="#80A572"/>
<stop offset="1" stop-color="#22BCBC"/>
</linearGradient>
<clipPath id="clip0_105_126">
<rect width="45" height="45" fill="white" transform="translate(222 225)"/>
</clipPath>
</defs>
</svg>
